/* XPM */
static char *_990e882a29843d4d3faf178fd653d7cthu9BxwQaAc0J88g[] = {
/* columns rows colors chars-per-pixel */
"64 64 86 1 ",
"  c #2F1F19",
". c #302017",
"X c #33231B",
"o c #3F261C",
"O c #392C23",
"+ c #40271C",
"@ c #432B1E",
"# c #482E1F",
"$ c #4C301F",
"% c #452D22",
"& c #492F23",
"* c #463125",
"= c #4C3225",
"- c #4F3827",
"; c #473329",
": c #4D3429",
"> c #4F382B",
", c #513626",
"< c #543927",
"1 c #583A27",
"2 c #51362A",
"3 c #553A2C",
"4 c #523C2C",
"5 c #573C2C",
"6 c #563C2D",
"7 c #553D2F",
"8 c #5A3C29",
"9 c #5A3D2B",
"0 c #593C2C",
"q c #593C2D",
"w c #593C2F",
"e c #593D2F",
"r c #5D3F2C",
"t c #5C3E2F",
"y c #563C30",
"u c #563D31",
"i c #593E31",
"p c #5A3E30",
"a c #5C3F30",
"s c #5D3F30",
"d c #603F2B",
"f c #5B402F",
"g c #5F412D",
"h c #5C402E",
"j c #5D412F",
"k c #5E402F",
"l c #5B4030",
"z c #5C4030",
"x c #5D4231",
"c c #5C4133",
"v c #5E4332",
"b c #5F4332",
"n c #5F4333",
"m c #5E4539",
"M c #60422E",
"N c #63422E",
"B c #63432F",
"V c #68452F",
"C c #604333",
"Z c #624233",
"A c #624531",
"S c #604433",
"D c #634432",
"F c #644532",
"G c #644733",
"H c #624334",
"J c #614434",
"K c #634435",
"L c #624636",
"P c #654534",
"I c #674734",
"U c #644636",
"Y c #694631",
"T c #644835",
"R c #674934",
"E c #644837",
"W c #674936",
"Q c #674937",
"! c #694A36",
"~ c #61473A",
"^ c #664838",
"/ c #674A39",
"( c #654A3A",
") c #684938",
"_ c #6A4B39",
"` c #6E503B",
/* pixels */
">=-:266yy633yy6:*,1<,-=**=%,<q2<:>-:44363y<:,-2-232--#==:=*<3,:=",
":=,<qhJJ^^WWJCc<,BSFM,<,,,#9MSVf<ftSSP^W)_^^CCc33CttM$2,<:=MPtc6",
":2<<<ihtJnncch32,SFRF,11,3&8MF!h26qihCJW))^^PSS1tSCFf=4<q2>hCSC>",
":=:3qiccfqi9q2:=,FFGF=<<1,&hFFWq-6qihcnJCCCPP^WiqScW5=61q2*CCSS>",
"=%%*-2669i66i33:2FWWS$11q<=hFY!q&22yfqchaaaap32=9CCP6*h9t2*hSJS<",
"=%%%#%;;<2:;-==*,FFWB*99tq=tFRF9&&&&-=-,::2&&+%%<CW^8,9hh<#fJWW:",
">>42yicclllccy32,SWWG-t99q-1!!!i&:2y6y6yiypp322:2CJ!C,8tM3=tCW^>",
">>yyyyccmmmmyc64<SWWG$8hhq-tFF_q*,24443yuppyq32=<W^!h,C9tC=c^^!4",
"y2yyyyccllciyyy;3CFIP,ihds&tPPPp&=:23yiy3yyiyy::qWW!h<CBqM>S!!!5",
">222yyyicliyyy6;,hCId&88ts&wdPP1%-::2:222:2yiyy:<_W!h6CMti,F!!!4",
"::=&;:,:;>:-=::&,taMq#9t8a2pdss&%=*=*#@#%%%;:=:&fWWWJ1chd9=SW^W6",
"::,,qaCCmmJSSCc<<8tat=qctc,11ts2,qqq6666qyyyy2:%fLW!c<hhcq=MWWL2",
":222<qaCPJPPSci3=qqqt-hhhC,2p1sw1taMFcJCaaiy2==%<GGGc<8hh5,h^Gn4",
":22yqqaalaaiq<2=*<3qq<fchi-<3pw1q8hhhhhhaiyy2:=%5hGBh,q9h5-hLGS2",
":&*23qiiiiyiy33,&,,93,hqcq==,1319SMBSMctaii2:2=%qhnnq=<<16-qShB4",
"=@%%@&&=>,2222,&#&,===6332#&===:,<9qh8h9,,2=:&%%<<151=2,=-*4116=",
"22,,,&&=;*$<9<1,*<2&:,,2qy22222;=33;*,,111=;;::%$*-,<q6q966q569=",
"tcMMC=,3yy*fFS!B&qiiycmii~iipp2&2ciiq,91ta2yyyy&*-,,qcnJ(W^Lhjf-",
"qaMCY&23yy*hFM!M=2iyiiyiiiiiypy::iacq,dddd2yycy*,211qlccnnhhff4;",
"3MaMF&:3qt=qFVYS=2322>yyiiipyy:%=iaat,ddMB4ycyi;**256lllfff45,-*",
"3MFMF=,3yy&qFF!t%&:::%%;:::==&;%=yiai,ddBN,qimm:@%%%,266l6yy555=",
"6dCCF&:3yy*3PFFt%%%%%++%%%+%%%%%:iiiq,dMBN=qm~m;@%%%%-;:>2;:=*=*",
"4aCPF*:33y&3FFPt%%;&;&=::;;;;::;:iic33BBYM,4mmm:-26yicccllccl>6>",
"3adFS2:433&qCFFd+%%;&::::::::;&O=ciiq,VYVV,4imm423yy3cmccmcccyy>",
"4qdCP,:2:y=2PFFt%%%;=::::::::;&%=ciii3YYVV,3m~m:;245yyccccnllu:;",
"29cac,=,2>=2aaFt%%%;=%:&:::::&&%=ciiy2!CVY,2mmcy:4224yyccy64u>2;",
">5tci&=2:2%,itcq&&%%&%&%&:::%&%%&iii3,YBBY=>mmmy===*::<2>>--,:;-",
">,5ty%==:,%,aat2&yy23iiyciiyq33:;aii33YBFV&3mimy==,3lnJ!JLnSnci:",
">,2q2%===:%23qi:&:yiyiiiiiiiiq3::iiy2<FVVB,tim^y=,<1qqcSJJJChqi-",
">=>22@:&=;%:23y=:22i3qqiiiiiii2;4aay2<VBVB,3m~(6&,<iqihhcdi<q,-*",
"*=;>:+:&%&%=:33=&:2:2222iyy3222&:aa2=1BBBB4yi~~2@*=:,qqqqc1iiq<;",
";%%%%@%&%%%%&=2%&&;&%%%%&&%&=%%%&:*&&=883,&:yi4=@@#@@%*--:<*,==*",
"2==,3311qqq33qy=,iq<9=%-,,#-,==%;;;:%%%:%%%%%%oo&::&%&<333=,=,&=",
"2,2p1i1aqssttap=,SBBF,,19,=,,,,=;::::::%;:%%%%%oy2w2&2paaa,6,<-=",
":==2333q1iq1qqq,-chSS=1h91,1<31*&::;:%%:;%%;%%%%1ww222ssaa:5q<3-",
":==,,,2:1,t3133-=MC!M=qht9=1q11*;::y:::;%;:%%%o%wdw11,ssaq,cq91-",
":%%%&&&%*=&*&::%=cFPn=hBtC11999*%:::%:%%;%:%o%oo2sssdyswM<*hit9<",
";%&&;;%;==&====&$hJWF=cBBF<<99f-%::::::y2w2222:%2ssd13s1t8&that,",
";%;:::::::2222:&=c_WW<SF!_<<thh,%pwuppCi~wwyww2:s^ss32ssMq=SPSh2",
";%%;::;::=;:===&=J(WW9FW_!<5h99-&2yypwppuuwwwww&ss)d12sst1-WPPS>",
";%%%%%%;=*&*;;&%=!WWWhSR!`q6h8h-:22y2wwuuuww:2:%h!WS<,th99,_!PC:",
";o&&oo%%%&&%%%%@=WWWWfSR!_<<hic<%:&:&%%&2::::::%CWWF1<hcq<2PP!C=",
":::&&:%;:,2:,==&=W!!RhVB!_<<hqh<o%%+o%%;%%&%%%%%c!F!q-qqq1-F!FJ>",
":yiypiiiCcciiq3=-SWGBhGB__<9cqh2%:%:;;::::;::::%fW!G6$<989-SWRc>",
"223pypqplciiqi6=<SGGSCShWW99hqc,o%%%;::%:::::;%%hGRF1-,<1<,RWRB,",
"y322ypyyiiaiiq2=,MShh8BhBFq9hCq:%%&&:::::::::;%%M!YB<=<,<1<GGBh-",
":::::%::-22:::=*=hhBfqM1MS<9lfi=%%%%%%%&::::%%%%hMVg,$,,,,,MhB9-",
":%%%%%oo@@@=**@@#==$=#=#**$==-*%o%%%%%%%%%+%o%%%$#*$#@@@$@##-$$*",
"yaaqf==--<$<ch66=2y>2::2242::2y:9Sh3f=6c44-cq1q-@%&&;:,22:2,,,=%",
"uCaCG,1125*9SSch&iyyyiiyyyyyyiy>9Sh8f>yfy62Sc9S1%=:*22:iiiqiiq2=",
"3MCCS=215q$6SSP6%yyyyyyyyyyyyip=qWRhS2cfiy<JWcS5&;:22yiicaatai3:",
"qCM)B=6995$9GJG3@,22yyyyiyyiii2&9WRSS6mcci<WWBS5=223pqiiCcccca6-",
"yhFPJ,qhhh&<nWS6#*==::=,,:33,,,#6_WSn<n(mc2_!BJ5%=-2%&:::,2:22,=",
"2tF^P,1hfh*<SW!9,9q9113<33,,,2,,h`!FS<nncc<_!S!q&;;*%%%%%&%%%%@O",
"2h!WP,qt9c=<_P!h1tdataFFa888881,h`WWGhcmcc6_!W^<;;::;::;=&;%%%%%",
"6S!W_,ttMh<3^_!h1cdddd8NFCdtt8q,h`!Fh4Smmc6_!WW<:2>:;%;&;&;%O%oo",
"6S(_!1dcct,q!__c,ddMBBBBSddNdN93h!RFS2CCmi3_PPC,:::::;::;&&%%%o%",
"6!___1cMch-q!_!c:i1q1ttcddtt11928!B!h,mcas2IPPV*%::::;;&&;%%%o%O",
"6JWJJ3chtf-qW^Wl&;::@#%&&&%,,,:&9FMJq*mcsy1sCMC&+o%%&&&&&&&&:&%%",
"lBWJF<qfhh=9JWJf:u>ih3qyyqyyyyu:<hhh3*yqy3:dcM8=%%::::2yy2yi222%",
"lcGSS1qqhh=hn!Sfyiuuummmiyiy>yy:,1d8,#3ip2:1ddp&;:::22pppsaaqpq=",
"6lSBh,<6<h=3JSM9u~miuyicmmmiyyy:=1t1,*46pp22ww2&%::233ppaaaaaap=",
"hhhhB-22-2=qMCC1>iiimiyuyyyiq2:&$11,*=46,3,,,22&:22y3,saaaaiad3&",
"OXXXXXXXXXXXXXXX  OOOO OX  O     XX.X XX + .. XX XXXXX   OXXXXXX"
};
