/* XPM */
static char *aa1fa2ffe5ea4a90da9b7b8f9e0c171fYOyp00WCPhpkdWSv[] = {
/* columns rows colors chars-per-pixel */
"64 64 69 1 ",
"  c #19191F",
". c #1E1D25",
"X c #201F26",
"o c #1F2027",
"O c #202027",
"+ c #23222C",
"@ c #29242E",
"# c #262632",
"$ c #292633",
"% c #272834",
"& c #2B2A35",
"* c #2E2D3A",
"= c #302D36",
"- c #302F3C",
"; c #2F303A",
": c #32313D",
"> c #39353E",
", c #2F2E40",
"< c #322F40",
"1 c #323140",
"2 c #343141",
"3 c #343242",
"4 c #353342",
"5 c #333441",
"6 c #353440",
"7 c #373440",
"8 c #353640",
"9 c #373444",
"0 c #373545",
"q c #373744",
"w c #3A3741",
"e c #393542",
"r c #3C3743",
"t c #393745",
"y c #3D3744",
"u c #373844",
"i c #393944",
"p c #383845",
"a c #3A3A45",
"s c #393946",
"d c #3B3B46",
"f c #3A3A47",
"g c #3D3944",
"h c #3C3B47",
"j c #393748",
"k c #3B3948",
"l c #3B3B48",
"z c #3C3A4A",
"x c #3C3B4A",
"c c #3E3E49",
"v c #3D3D4A",
"b c #3D3C4B",
"n c #3F3F4A",
"m c #3E3E4C",
"M c #3F3F4C",
"N c #403D4A",
"B c #403E4B",
"V c #413F4D",
"C c #413F4F",
"Z c #423F50",
"A c #40404B",
"S c #43414B",
"D c #43424D",
"F c #41414E",
"G c #43414E",
"H c #45414D",
"J c #44424C",
"K c #47434F",
"L c #444251",
/* pixels */
"$=::5666u6:>uuu;*44::::**&&;:>::;:;;::66:a:::::*:e:--&&;;**55;;*",
"$=;:6ubbAMvvaau5*avvr:::::*:aGva:uuakbAAGvAGbnvw6vtta*::::;slul:",
"&:>:>wahvklkku51:gNVv::6:;&>vVvt:a9ualvkvGvAAvd66vaka*656:*9aaM:",
"@::uawwrakaaa5;**vAVv*66>:&uVAVt:65uulllzvazAbva6azA5*k6u:*aaAl:",
"@&**-e>e9u9u969;-vGVb*96a>*:ALV4&::46a9daa6u444*6zbAa;u6t1&ukAl:",
"@@##$$&-;1*;***&*bAVb*9uaa*uAvva$&&=*1:;****####:abba*uuu4%9lvM:",
"@***--4433133;***ZJbb*9u9s;5LAb9$--:9eatr644-**#-kvba;9kka&avAM:",
"@***-<9999j9335*:AJAb*6taa;uGGLt$&----::egr6<-*#4bALk*a9u9*zAAL:",
"%&&*,144414<4,*&;bLGv-6twd:evJA6$$&*-44---:e>:=$3LKLb:ka6a;kLLL6",
"#&&***-1<44,*&*&*alAN&6awg:4dvG5#$&&*******=:>>&:ALGk3kaku;lLLL6",
"#$&%&&*****&&&&#:uakw&6a6l:4aaA*###$$##@$$$$&&-$3GGAk1kkuk*kGGZ6",
"$**49javzvkazkj<*u6uw&a66l:1a6d1-999666444aza>:$6bGAk:uku3*kAGA5",
"$4<<4uazbbbbkau1*1auu:uuda::96u64ttkzvvzvaNa>**&tbGVk;9uu5*dNGJ:",
"$-3yaeaazkaa941**4395:u9uw4:66u5:ttazvNbga6::;*&6vVVk;u5u1*dNvJ:",
"@-=->aaaatttu95;*;145-eaaa**:6:66kzzgvgja665:::*6kvNu*1415*uvdh:",
"@$$$@&&=*---3;;*&*;***:446$&*:***awu99a4:--**&$%:6664*;1;;&>::w:",
"&:-:;#@%&$#4e4::&:;***41:6::::-&$**$#*14<4&&&&&#&**11>169613641*",
"=e6kb*&*-*$tvvAz&:9auuaaddvwaww-*<***:9tza<**<*$***44avbAbAvzaa;",
"=ewkk*&-<4&4NaGz*-56u61aadaaaew-*-***-ttkk1*<<-$:>96eakzbdkaa65*",
"&ywab&&-<3$3VvVa*4414:6agga6e66&*<*---kjka<-<,1*&*4daeaadda9u::*",
"&a6kv&&-<<&1ANva&*;;**&**:;::**%&9----zgvk:*149*#&**:>e69uu9664*",
"&auuv&$<<1&<vVvd%%%+#+##&&###%%%$9t---tgvv**99j*@###$$*******&&&",
"-tukk*$<*--:aASd%&*****;******;**-k-:-abLb1*49k=&***:56639416*1*",
"&ttub*$**-$:hvSd%&%***;**;;,**&%$-ye-:vLbb1*9jj>&**,:49ut99t<4--",
"=zr6j*$&<*$<hhJh&&&**;**;;4***&&$-:g--vKVb-46jk-%,**-<<44<44-**&",
"$ya9t*$&**$<vvAr%*&***&;*1,;;*&%#*:g:-VVbb-*9zb-%&&**--:1<--*&&&",
"&eau<*#&&*$-wdV>%*%%%$%&&**&*&&##*-g>=GNvb**9ag1%&&&**:*-&-&***&",
"$466-$%&$&$-aea>&1k356uauau9:a::$*->::Ggzv*-kaz9*,-66zkVvVvvkkj*",
"&:54*##&#$#,<3g:%:6a6uaabbvgga6*$=->>:NNNz-3yvv1<39:ttazkvbkk9u-",
"$-;:&#$$##+*t<g=&:55666alaaaa64*$&->=>Vgvv-6akb4&<6y6ejabkaa43:&",
"@***&####++,<4t*&:554:*566u:::;*$$>>=:Nglv->Vgk,&**:aaaet9a9a:9-",
"@$$$%#####+$&*:&$;&%&%%%&%&*&*&##$$&$*wa::&&e:-*##&##$&---*;***&",
"%;::;>>:666:66:;*9u56***:;&:=**&$**&*&&*$&&&&&%%=;;;&%6644*****&",
"&;::d>rrkaawaua:*kakv:*wa:;::::&*********;&&&&%%>:>;*:avk6;6u4:;",
"&*::u::wgvw66ww:*kkbv*:ga:::::>*&-1**&&**&*&%%%%:>::::9kku*6>44*",
"%;;:::;:::ka66::*llbk*6aau:::a:*&-*-,:**=;;*&&%%ua>w::lda9:a9a5:",
"#&&=-*&:**&***;&&kbbv*zvaa:49u6:%:*;*--=&**$%%%@:auuu:l6au*wu5u:",
"+$;=%*$&******;$&ubMv*vvvV4:uwa:$::*:-:::4::::;$;vus5uv6a>#>lda:",
"@==>::::;:::;::;*kbMG:vbLA:6u9w-&64uu9auavae>u6*6DMa5:v6u6*NAva:",
"@&*&*-*;****;**&*bLLzaVbLL:5awl:*:49999klgguaa6&aFDn5:du96-vGAk:",
"#&&&&&&********$*lLLMsbLGLa5auv:*:::544a9uau511%aGJN::h6a1*AALz:",
"@#%#%%&%&*&&%%&#*MLLMuMlGL5:a6l6$**:*%&***;****%gNAG::aa9u*bLAv=",
"$-=&&*&****:***%*bMLvulMvL15a1k6+&%%###**&%&&&&%eAJA6:uau5*AVVV:",
"$>w>4aaaaaagaew:;lbDvdMlLA55a9d6%&*****;*1;*;**%6AJA:*>u55*bNAg:",
"#:66t9uadNdaaa6;*kNAvavaMv69ttk<%&%********;**&%zVVN:;:u::;JGNv:",
"-:4::>4aadaaeu6**aNNl6ktlva4tk9<%*****;*;1;;***%tVAv>&:::::aGNg:",
"&-:;;***;:::*:;&*avga4a69k4u9aj-#&&&*%&**;****%%wVvg>&:;:::gNga:",
"@&%###+@###%&&###&&*&$*&&%#&***#+##%%#%%#%####%%&&&&&$$&&&$&*=&&",
"=aa>9*;:;:*:ku55++####$$###$*&&*:a66u*:6*:*a9:a:$$**::*::*::-***",
"=zlkv::64u*6lkla@$$###&&*-4-**$#5bkak*:6::*vdak6&**::::aaaawww:=",
"*dkbv*4556*5kvbu$->:----44=*&%%#6bbab;4961:bMdv6&:::::gkvwakaha:",
"&kbba*5959&5bbb5$==-:9>>=*$**&&+1LAvb9tt94*LAvA6&:::6adkglttaaw-",
"%avzb*:au9&4kbbu#&&==&&&$*&-&&*$:LLvV:ybk9*VLvv6&;*1*%*1:;;;-::*",
"&uNVV*4jk9*-kbLu-errwe::<:<:--:*uLAvk:tkjt*LLAv6***%%%%%&$%&$$$$",
"@yVVZ-tjak*1bbLa4taahvvANe99t44:aLLvv49btj1LJGN6*;*:;,*****&&&&$",
"=vVKV-tjjk:9ALLk4aazawtvNNrttt::zLGVz4jk9j<LJGve**;**&****&*&$%$",
"&NLLL1ukk916LLLl*azzvkkkvvkkyjj<9LAVN:tk991VVAN:*:*:----*;***&$%",
"$VLLn:akkk*uMLLk-tt61aaj6a5999<,4VNNg*ttt4-VNvN:$:=:-:-=&&*$#@@@",
"=NGGv:ukau*6vGLu$$$&#####$#%&&##:lvVz&9934-gvhN=@@$&$&&*&&&&&&%&",
"=yLAv16aa9*6AGAu----****&*****,#:wtv:$641-*tehh&&&*-::::6uu66:;;",
"=hAVv:69ua*ukAAa-4te<441,,,*&&,#:6tk:$:11-*4aa:*&;;;;46vlkagdau;",
"=evva:4419*6avG:&33e34<41911***#*:ga:$---**4aa:&&;;::uvhhauaddu;",
"&wazv-4414*6adg>&43tt41::4,<*#&#*:e--$--***-e:;&&::u4:eaaeuuaa>;",
"O++OO.XOO.OOOOOO...+......... . ..XXX......XOXooo+Oo...O.Xoo.oo+"
};
