/* XPM */
static char *c2d81e64df92446dadcefd737d88dbadp98S0KCFv1WMi9zZ[] = {
/* columns rows colors chars-per-pixel */
"64 64 57 1 ",
"  c #CACCCB",
". c #CBCFCE",
"X c #CCCECD",
"o c #CDCFCE",
"O c #CCD0CF",
"+ c #CED0CF",
"@ c #CDD1D0",
"# c #CFD1D0",
"$ c #CED2D1",
"% c #CFD3D2",
"& c #D0D2D1",
"* c #D1D3D2",
"= c #D0D4D3",
"- c #D2D4D3",
"; c #D1D5D4",
": c #D3D5D4",
"> c #D2D6D5",
", c #D3D7D6",
"< c #D4D6D5",
"1 c #D5D7D6",
"2 c #D4D8D7",
"3 c #D6D8D7",
"4 c #D5D9D8",
"5 c #D7D9D8",
"6 c #D6DAD9",
"7 c #D7DBDA",
"8 c #D8DAD9",
"9 c #D9DBDA",
"0 c #D8DCDB",
"q c #DADCDB",
"w c #D9DDDC",
"e c #DBDDDC",
"r c #DADEDD",
"t c #DBDFDE",
"y c #DCDEDD",
"u c #DDDFDE",
"i c #DCE0DF",
"p c #DEE0DF",
"a c #DDE1E0",
"s c #DFE1E0",
"d c #DFE3E2",
"f c #E0E2E1",
"g c #E1E3E2",
"h c #E0E4E3",
"j c #E2E4E3",
"k c #E1E5E4",
"l c #E3E5E4",
"z c #E3E7E6",
"x c #E4E6E5",
"c c #E5E7E6",
"v c #E4E8E7",
"b c #E6E8E7",
"n c #E7E9E8",
"m c #E8EAE9",
"M c #E9EBEA",
"N c #EAECEB",
"B c #EBEDEC",
/* pixels */
"6,,266rkrrrr,.O,uuuu8853q8558e88u8ulxsq8:<ejxsq8888usfuu8fu5eu8u",
",,%,,,0d2,6rr626<<33<<&&5335quuuu88fxf8<5qfxf838uq8euu85<u8<88<8",
"%%%%,=6r6,,6r660-<5883<:<<<388e8p5<ujf8:<5slfeefue88q83-:85&35<<",
"=O%%==2rd6,,2=,28888eeeu5588quuuf8<8uu85<<esfusx8888e83:&83:55-<",
",%%=,%,6iiii6,,6q8888qusqeuufxjffe5533qspq8usuee8858q83:<ue8uq<<",
",,,,,=,6,6dkkrrdue888epf358uflljse83<<8fu5<ufsuqe85888<&8ffufs88",
"6226,=,6%,6ddiddsuuqeuup58euffpuu8335<8u5<<8upup5<<<55<&5ffsxluu",
"6262,%%,6,%,,66r88quu888fffljfuqq<:585<<e8eue888&&&<383::usfxxpp",
"r,2ir6,.=,622,66<<ufe88<uu88888ee8:-3q858uu8upq-:<<<<<<:ufjffupf",
"r,rd02,%=%%%,,263<euqeuqq8uuueue3<<:<5eu3883883&++-<3<::uslfueeu",
",,ri2=,,6,%.%,228<8e5efu8ufjffsu<<3<-:8s8883588<&&5psq88epffu888",
",,06=,62kr,%,,,,<<8e5efueuffxnfu858<<&<8ue8588888<8xxpufquffue8q",
"i6r6,6drvr2=,,,,<5ufqpjeuu88fxx8u<<<5:<u8533<<<88<8upeuj8uffpuuu",
"r00026i6r6,=%,,,5effulbusu3:8ff88:&<838f8858555u88558epfqusspusf",
"26rr,,0,6,,==,,,38fselMfffu<<ufu3::88<ux888q835uufu58sjpupspuusj",
"=6hd220,222,,%%%<3e85fMjpxx83ull5<8e3&8x<<<8<::88ff<3fjqsfsu8quf",
"2uuep8<888uuu8<&8ufsqqfnsfxxp58s58e8qqe8&<88<<58puufpqufffuusfff",
"8iuufu8ueueeu8e8:<88qeeefflxf88u<358qeee<<<&&<pxpuuspqufue8ueuuu",
":qq8uq<ee8858euu::<8ffu<ssfxfu88<<58quuulp5-:3ufsppsuqepee888qee",
":q88e5<885<:<<8u<<<uflu8uuufls8538588euuxfu885<:ppppueeeu888queu",
"8sueu8<e53<<:<<<&-<5ee888eeujlu588888uee88388u5:upuuuue8uq88quue",
"efu8e5:8q888<<:-&<<<<<8u58euffu8888888euu888upuuuuuuupu888535888",
"8se5q3:8uuq8<<::<588558q8uueusu8888588uujffpssps8uueufu583<<3585",
"qfuque8usu8<<<:<<<5888538pse8ue553338euf8epfsue88uueufs583<<3585",
"38uue8qu88<3u<&5<5qusfs888<8eqquq-5:qlusxfu88e888psequpe88555555",
":5qq88quue<<8:+::8uuuuu8u88spe88q<8<8fufxfue8855fljpusfp55553333",
":38888epupe8u3&:<quu8qeeu8epsq55u8feufuxsue8eeq8xxfsussu<<5<<5<<",
"<88e88euque8pq<5<8e88eue833qu858e5susxusuu888885uuuuuuq5<<<<<<<5",
"8888538e<8<<88-<83<<usp8u35585585&88fb8<ffq85<:-338euq3-:<<<<<5<",
"88<<<<<<8s5:88:<5<-<efp5lu8883388&58xBu8u85<38qq<<3epq<::<<<5<35",
"85<<<588qs8<8e8q<<<<8pu3fu888<<88&58xBjfu85<8ufle<<eu8<:::<<<335",
"u8888uuu<u5&8ueu<8888e83u83885<<<&::8xfxnlu88qupp5<5q8<<:<<<5355",
"es5:uxq-<<8slfp8ueeuuuuqu88q588<8<<:-qs8pe888u85fu3:&&<<<5588883",
"5u3&ef8:58euppuuueuuuuuqq<88:<8:8&&&+8u8ue3<5885lu<&:35<<<888853",
"8s8<8u3<eee88eusuuueuuuu8<35:<q33&&&+8s8fuq8euuulu58usu<<38eeq5<",
"els588<5spq3<<qsue88eusf8<8q3efp8<5<&8fufuuufffu88qpfu5&58uupu88",
"5fp8888ujf8<::8ue8888uff<<8u8uxj8585:8fu888usse8&<8885:-8esfffuq",
"&88<88qlxfe<<<8888<38esp<&8u5qff3<88-3u5338uspq88e85-:8u8usfffue",
"&3<<88exnfe8euq5e85<58e8-:8u35uq:<88&<5&5338uue8puu858useuusspuu",
"3q88eqqlMluuffu5uq5535<<<<uf5385:<qq:<8&<-&&<585888eue5<8euuuuue",
"588888ufNq5xnq<uuu3-eu3:<58e885<888<8ue3:<<&-55<qq35pe5ufppfxju<",
"<<8<<<8uxuqsu:&u&<:&ufsspfu83<<<58888pu8-<<:<85:5q33q3<sfspfxjs8",
"<<5<:<8qepffq<<8&8<:epufxfu8<<<<5888epue8883353-<8538<<flsusjjsq",
"883<<88q8fMbffs8:e858e8pjp83558u588ueee8lse535<:<e58u83uuueujjpq",
"883358eefMMllnx8X58<8uuxuq538qee8888e558xs8<<<558e3exf8u888ujfu5",
"83<<<888BMf8ell8&e8<uupxuq858eq8u88e8<3qfq<&-<<888<enl88e88ufs8<",
"5<&<<8e8xf8<8su8ulfuppusfu85euu88858538sfq<<<<:558<5fs8efsqquu5-",
"3<&-88e8<<38usu8fxfufjsffu55esfs883885uxxfuu8<&&<<-:q83uMlu888<&",
"<<--<358<85885588fMfe8ue<8qqufses5<88<<uxffjf838q888euup58eqqu8e",
"3<<<88888eueq533<ufse88e5euupfpqfe8uu5<uMfuq8<<8uuuuuuq8888888qq",
"55888888euuuq833<8uu88eqqpsppspqu88u8&-3ns8583<588qupue88e888888",
"3888888838euq853<8uuuuuuuspequssu888<&:<u888ue5<3<58qq858855558e",
"8q88888q5quue8538eeuuueeuuu<5ufxfu885358uu8euu8<suq53<&&58585588",
"upuu88euufffu8<:888uuu88eu8<<exMxu58qeq8lfp5<385suq853<<<<388885",
"ffsu88ufpfjjf8<<8<<ufpue8uu5<uxMfq<8sju<lnf8-:385558quee&<<8e855",
"sfpq53ef8usfu85<q35pljffepse8fxxfe8snBf3qfxu5<<<3358q8<<&&<8q883",
"8uflu88s8sfu5<<<8:8xbnbs5ue58ff8ueulxffxMupf5&<8q:<q8eq<<558s8:8",
"uuffp8uf8usu888<<3fjeqsu8ue58lfuxsuuu5<<nuqp8<eu8:3q8qq<<85qfu3q",
"e8euueuu5upe8888&5uq:8sq8ue5efxpMfeeue88f<:5<<8u5:8q88u<::-5fu<3",
"e3<8e8885uuq5553&&:-<lb5usu88ffulspfjlfxp::<&&<&--8q88s8::&5fu::",
"u5:<88888us8<<<:535<3lb5fju38pfuffjxfu8uu58u5<<+&&88<ufee8<qlp<<",
"p8<588euqpp8<<<:8pxs<8u5flu<<ufupsjbxu85<<us835&-:e8<us<8e<5sq-<",
"e3:<88ufqpp835538qjl88q5ffe:<ufpfuulnle3&<us3<5<55q5<uu&<<&<8<+<",
"3:&<38ulesse58qq3+<slfs5uu8&<pxfxu5pbj3X3qll88ueuqe5<e8 :5:<8<&8"
};
