/* XPM */
static char *a741fcba18214375c88be07f800451cbF2PFZEng41Yk2Fhj[] = {
/* columns rows colors chars-per-pixel */
"64 64 98 2 ",
"   c #2E1618",
".  c #3A1A17",
"X  c #351A1C",
"o  c #3A1C1C",
"O  c #3A1D21",
"+  c #3E2125",
"@  c #451E1D",
"#  c #4B1E1D",
"$  c #511F1E",
"%  c #46201E",
"&  c #4D211D",
"*  c #54231D",
"=  c #5A251D",
"-  c #5D291F",
";  c #60271F",
":  c #441F21",
">  c #4B1F21",
",  c #472122",
"<  c #4D2223",
"1  c #4D2429",
"2  c #4E282A",
"3  c #542424",
"4  c #5A2623",
"5  c #552825",
"6  c #5D2923",
"7  c #542529",
"8  c #5A262A",
"9  c #55292C",
"0  c #5D2A2B",
"q  c #552C30",
"w  c #5D2C31",
"e  c #5C3030",
"r  c #602724",
"t  c #612C24",
"y  c #602729",
"u  c #632D2B",
"i  c #652D29",
"p  c #642F2B",
"a  c #662E2B",
"s  c #672F2B",
"d  c #622D2C",
"f  c #612E2C",
"g  c #622E2D",
"h  c #662F2C",
"j  c #682F2F",
"k  c #653026",
"l  c #65302B",
"z  c #66302B",
"x  c #67302B",
"c  c #63302E",
"v  c #65312D",
"b  c #67312C",
"n  c #69322E",
"m  c #69322F",
"M  c #69342F",
"N  c #642E30",
"B  c #642D32",
"V  c #692F31",
"C  c #692F32",
"Z  c #652F38",
"A  c #623031",
"S  c #673130",
"D  c #6A3331",
"F  c #683233",
"G  c #6B3431",
"H  c #6A3531",
"J  c #683532",
"K  c #693533",
"L  c #6B3532",
"P  c #6C3633",
"I  c #6B3234",
"U  c #6C3234",
"Y  c #6A3635",
"T  c #6C3534",
"R  c #6D3734",
"E  c #6C3437",
"W  c #6F3637",
"Q  c #6D3836",
"!  c #673339",
"~  c #6D353A",
"^  c #6E3939",
"/  c #6F3B38",
"(  c #6F393B",
")  c #6F3A3A",
"_  c #703937",
"`  c #72363D",
"'  c #703938",
"]  c #703A39",
"[  c #70393B",
"{  c #71393C",
"}  c #753641",
"|  c #783742",
" . c #753B41",
".. c #793B44",
"X. c #7D3E48",
"o. c #7A4047",
"O. c #7D4149",
"+. c #80454C",
/* pixels */
", 3 5 4 8 0 0 0 e 0 0 9 0 e e 9 1 8 8 9 9 7 5 3 3 3 > 7 9 8 9 9 8 9 8 7 9 9 q 9 8 q q 9 7 7 9 1 9 w 0 7 7 , < 7 3 7 , 8 0 5 2 1 ",
"# 6 r r i D Q Q / / Q Q Y Y J 0 7 v D D C 4 r 6 6 4 3 8 D G C B i v m D K Y / / ` / { / K Y D g u K D v G 4 0 t k 6 3 v K x K 9 ",
"# t i i i i m D K K E K P v c 0 7 B G P ! 8 8 r r y 3 0 D E ~ S 8 m i D x P E E { { / / / P K v 0 M v E v 3 i 0 x k 3 D D K Y 9 ",
"@ ; t i x i m m S v x x i t 6 4 3 D ~ _ ~ 7 y i i r 3 0 E ~ ~ A 4 u u m m m K P K K I K Y { Q x 6 K P Q i 3 f f i 0 , K D ~ Y 9 ",
"% = 4 4 4 y i v i v v S v v x 0 5 I ~ ~ U 7 y y j i 5 0 ~ ~ / w $ r t y v v D S v D B D A 0 8 8 8 P P E g 5 u m g i > C I Q K 2 ",
"# = 3 $ 3 4 8 g i B g B g 8 8 4 < S E P K 7 i i i j 8 0 E ~ ~ 0 < 8 8 8 8 f 0 B g g 0 8 3 1 < > 8 K P P A 3 j C v i > g K ~ Q 2 ",
"1 C ~ E ` ` | {  .}  . . .~ ~ ~ 8 K E Y K 7 f g m v 4 0 ~ ~ _ B 8 U U } ` } ......| } } ` ~ ! B 8 D K { D 3 g u K v < g / ] Q 9 ",
"1 I ` ~ ` `  ..... .o. . .} } ~ 0 D E ~ / 1 g m i m 8 0 P _ { C 8 U E ` ` ` ` `  . ...} } ~ C B 8 K { E I 8 u v v S 3 u ~ K ] 9 ",
"7 C U ~ { ` { } {  . . .{ ~ ~ ! 0 D E E K 3 g u x m 0 g U P U C 8 C C ~ `  .} } ` } } } { ` ~ 0 0 _ _ / I 8 i D c S 5 N / ` K q ",
"< U U U Y ~ { ` {  .} / / ~ ! C 8 P G ~ U 1 v u i m 8 0 D E ~ u 8 B C C E E U U Z U Z ~ ~ { { B 6 { E { K 0 D B S S 8 S { / { w ",
"< 0 y 6 8 g 0 B B g 0 8 0 0 0 8 8 B u D g > g u u P 0 t j j P 3 $ 8 8 8 8 1 < 3 3 8 8 y 0 t f 5 0 ~ ~ / K 8 G U S c 5 I / / Q 9 ",
"% 4 6 r y u m K Y Y P Y Y I S g 5 i B B D < f D m m 0 y j i K 0 7 B B y A g 0 g y v B u m t 8 * 0 Y / Q K 8 i P K x 3 g / / Q 9 ",
"% t t t i i K K E P Q P Y D i u 3 i v v m 8 v K m P y r i i m i 8 B B P U E E P P P M x k 6 6 = g K _ ~ D 5 j u j v 5 m ~ ~ K q ",
"% t i j i x x K K D v v g i 6 4 4 y i u i 0 v v m v y 6 i r i i y i u u G K D D m m x t k 6 6 = 0 K E G C 4 u v s u 5 m Y Y P q ",
"& = - r i x m x m m x m v m u 0 = 6 y y i 6 v v K x 8 4 t f t 0 y C C D U U D D m x i k t t - 6 0 U K G u 4 i i i u 9 B K M K 9 ",
"@ $ * $ # < 3 5 4 8 8 0 6 6 8 4 & = 8 4 5 3 f 0 c x & 3 - 8 5 5 4 g g B B g u i 6 4 8 8 * 4 * % 3 g 0 0 0 3 6 0 6 6 < 0 0 0 0 1 ",
"% 6 8 3 8 > q w w 9 > 7 g 8 8 9 , 0 6 5 5 5 0 0 k k 6 0 0 t 6 9 w Z Z w 8 8 y y y 8 7 w B B N 7 3 4 3 4 8 0 g g g g 0 0 e 0 0 1 ",
"< j N S I 7 N ` } ` B w G C ~ ! < t x x x v P M M K P x x x k 6 B X.X.} | C y y u v 8 ! ~ ~ ` 8 4 t r r u K Q Q _ _ Q Q P K x 2 ",
", v B D Z 7 B ` ~ } B w ! C ` ! 7 t k x l l x m M M M M x k x 6 8 | ..| | B B i v C 8 ! ~  . .q 4 t i i i x m K P D m K K x x 2 ",
", D D D I $ B ` } } 8 9 C G ~ B 3 k i k l x x M M M M M v k k 6 y | | | | B y f C i 0 !  .~  .N * t t i m i v m x m i i g t 6 & ",
"> K I I ~ 7 w ` ` } w 8 U D ~ I 5 - 6 6 6 = 3 4 6 6 6 6 6 k 6 = y | ..| ..B y g C C 8 Z  . .o.! = 4 4 = 4 y i g v u x x v v i 7 ",
", B C U I 7 B ~ ~ ` w 8 I D Y C % & & & % % & * = * 3 & & & & % B } | X...0 B B C C 8 C  .X.o.A 3 7 3 7 8 8 0 m C N g c f 8 8 < ",
", B C U E 8 B ~ ~ ` B 0 D D U S * 6 6 - - - - 6 6 - k - k - - - B ......| B B C C C 8 Z  .o.o.! B ! ~ { `  . . .}  ...o. .~ { e ",
", g C U C y B I ~ ~ B 8 D I D D * - - - - k - - - k 6 k - k - * y ......| B B ~ C C 9 Z  .o.O.} B I ~ ~ E  .|  . .o. . .{ / } A ",
", u P D U y B ~ ~ ` B 4 D D U D * - 6 - - t t ; ; k ; k 6 - - = 8 | ..| ..w C U C C 9 Z X.X.o.~ N D U ~ ` { {  . .(  .} / ~ ~ 0 ",
", v C D U y u B D ` B 3 C G U m & - - 4 6 6 - - t t - - - - - = 8 | ....| B U U C I 7 Z X.o. .~ B U U ! ! ~ { { (  .~ ~ ~ ! I w ",
"% i j m C 8 B B Z C 8 4 m D P D , 3 & * & & * * * 5 5 = * 3 3 & 7 } ..| } w U B N C 7 w  .o.o. .8 8 4 4 0 0 0 u q 0 8 8 0 0 0 1 ",
"% r t m C 3 y C C C 8 4 i j G y 3 l x f x v x x m K x v l l x 4 8 | } | ` B ~ u C C 1 ! O. .O. .4 = 6 r i D K K Q Q Y / Y S Y 1 ",
"< i k x k & y B B C y 4 u j m 6 % 6 k m x x M m M M M M x x k 4 y | ` } ` B B B C C 7 } X...+. .6 t t 4 t m M M P P P P K S c 5 ",
"& t t k t < y B y B 8 4 y u m 4 * k i i k x M x M M M M M x x 6 B | ..} ~ B C B C C 8 ~  .O.O.~ 4 6 i D x x m m m m i x i r 6 < ",
"% ; - k t < y r y y 8 3 t t s 6 * k k t k t 0 i m m x x x t t 4 B } } ` U B C C C C 9 ~ X.O.+.~ = = 4 t k x m m x x v m i v k 5 ",
"o * * * 3 & 9 3 7 7 $ $ 4 4 r 3 % - 3 3 < * & & * & * 3 = = * * 3 B B 8 7 4 8 B 8 7 1 w ~ ( ~ u $ # = # & % * 5 8 6 6 4 8 4 4 , ",
"% 4 4 r 6 v i y y i i x 0 i i 0 3 x v 0 B 4 3 4 4 3 3 4 4 4 4 * 3 4 5 5 - * - * - * * * = = * * = = - * $ < 0 x i i 3 6 4 6 4 % ",
"* t r t i i u m m m m m x i i 6 7 D D M E 6 r t u r 4 8 r 6 r 4 = r k 6 - k - - - - - - = = = * - ; t t 6 4 v M K v 8 x 4 i 6 7 ",
"& - r t i i t i i m x i x x x 0 < v D E P 5 r i G y 8 4 y i i 4 5 k k t - - 5 - k - 6 - = = = * 0 g i i r 0 Y u v v 8 c i t t 7 ",
"& - 6 t t r t t t y m x i f x 6 3 D D E C 7 0 D v i 4 6 i i t 4 = k - k k k - k - - ; - = = = & x i f x r 6 K D D i 8 S m t i 7 ",
"& * = = = = * 4 4 * 3 3 4 - 4 * < u Y E K 3 g I G D 8 8 u s i 0 % 6 6 6 - 6 - - - - = * = * = % 8 m i m y 0 K v D g 3 g m i j 5 ",
"@ * 3 = - = * 4 4 6 * 5 3 * 5 3 > g P P ~ 5 m D G U 0 0 u D v 0 3 x t - 5 6 5 6 t k 0 t 6 6 6 & 3 D C v i 8 K x B g > 0 G i D 9 ",
"@ - t ; t x t t t k t t t t 6 4 < v / ~ { 8 K P Q ] 0 0 v u m 0 & x M n k m Q K P M M n x k k 3 9 ~ P K g 8 S B m 0 3 v { K v 9 ",
"@ = - - ; t - - t ; t ; t t - = 3 K { Q ~ 0 K ~ / { w 0 D i m 0 * t k x x x x m n M M M x n x 3 w E P Q g 5 S v D g 3 K G P P 7 ",
"% = = = = = = - 6 - = ; ; - = = $ ~ / _ E g K K ! { w 0 m j m r = k x k k k x m M M m m k k k * 0 { ~ P g 8 D v v g 7 K E { K 3 ",
"@ = = = * = = = = = = = = = = * < K { ` { x ~ E / { w 0 v i D 0 & 6 6 4 4 * = 4 - 6 t - 6 6 6 * 0 _ E P 0 5 u m u g < ~ ~ P K 1 ",
"@ 4 - * 3 = = = 6 4 6 6 - 5 5 3 3 D _ P ~ v D U Y  .0 0 m i D 0 % = * * & & * - - = = * = = = * c ~ ~ E B 5 v D g v 3 I ~ E E 2 ",
"% x v x x m M M M M K m x k i 6 7 D { G K B K I / / e 0 m v P i = - - - - - 6 t - k - t ; r - * 0 / ~ U B 3 y u i 0 < K P ~ E 9 ",
"& t k x x v x v M M M m M x x 6 5 M ~ K K g E M ~ K w 0 D G v u * = - = - t - - 6 6 k t ; - ; * c ~ Y K d $ y y 6 i 5 ~ ~ ~ D 9 ",
"3 x k x k x m x M M P M m x k 4 3 m E K P g G f D K A g m P v 0 % - - 6 6 ; 6 t k k t t k - r * N Y ~ I d 3 6 y y y 8 K P P B 7 ",
"& t t 6 6 4 - 6 r i x t t - 6 4 3 B C v D 0 C u c K 0 x s m D 0 # = * = - = = * = 6 - 6 - * = * g C D N 8 3 6 6 6 t 8 g u K g 1 ",
"% 3 3 % % @ @ % < % % & 3 & # # > 8 8 8 3 > 3 3 7 9 < 4 8 8 8 < @ % , > % < > 7 < 3 , % % , < > > $ 3 3 $ $ # > * < > > 3 3 < , ",
", v x e B 9 3 0 6 0 3 6 K i u 0 7 C Z Z Z C C C Z ! ! C C Z ! C 9 D u 0 N w }  .` ~ 0 A D 0 u 6 * * = = - 6 6 t i 8 r i 6 6 4 % ",
", M K P ~ 0 t t u i 5 0 P m K Q 7 ` ` ~ ~ `  .` ` ~ ` ` ` ` ` U w K P v I 8 } ..} } w K D u D v * = ; ; t t k x x x M x M i t 7 ",
", M M E U 4 0 u 0 v 3 0 K I ~ g 7 U ~ ~ ~ ~ ` ` ` ` } ` ` ` } B 9 ~ E i U B  ...|  .B Y E m G u = 6 t t 6 k x K M M M m v x i < ",
", M P ~ U 3 t v m x * 8 I K / 0 7 C Z ! ~ } ` ` ` } ` } } } ` w 9 { ~ D D B X.X.....0 K { G E g = t t k x k P M K M m m K M v 7 ",
"> u K P G 8 0 v v v * 5 I ~ K A > B B B B B C C C C C B C Z C 8 8 ~ ] K I C X.O.X...B K { D E g * 6 4 6 = % 5 5 5 5 4 - 9 8 4 < ",
", u P E ~ 5 8 S K x 3 5 Y K { A 3 i u B B g 8 0 0 8 8 8 8 8 y 7 8 / ~ E I I ..O.X.X.B { { K K v 4 4 5 = = * * * = * * * * * = % ",
"< g E ~ { 8 0 g x D 0 8 Q E / S 0 j u i B C U U I B f f u y y 8 f { / P Y ! ..X.X.X.B ~ { G P g 6 t t k 6 6 6 6 6 - = = = = = % ",
", D / { _ 8 i v v v 0 8 Q ~ / Y 8 j B B g g g v B B x f u u u y f { { ~ I C X.X.X.X.D ] { ~ P f 6 k k 6 k = - 6 - 6 - = = = * & ",
", I Q { _ 0 i B D S g 0 Q { / Y 7 g g C C C u B j B x B C u u 8 f { ~ P E C ..X.X...C ~ E ~ E 0 6 k k k k ; - 6 - ; = - = = * % ",
"< J _ { ` 0 B m S D 6 0 / E / J 7 g w 8 8 f B 0 g B 0 g d u y 5 0 _ E Y D w  .X.X...B ~ K Y Y 5 & 6 - 6 - k 6 4 - - = * * * * & ",
"< I _ Q ~ 0 u P S S 8 0 / / Y D 1 9 2 2 3 1 1 < 7 1 1 9 8 0 8 9 0 D B U B 8  .....| B C S D D 7 % = * = = * 3 * & & 3 3 * * * % ",
"< S { Q K 0 g S S S 8 0 Y / J N q ( ! / ~ ~ ! ~ ! D ! ` ! ~ J B 0 f u U 0 7  . .} } 8 i v D u < * = - - 6 k t x m x x x x k ; & ",
"1 D E P K 8 y v B S 4 g Y ~ Y v e o.! ! (  .(  ./ ( ( ! U I S w 7 i C D 6 7 ` } } ` B y g D i 3 = - 6 t t t k v K v M v x m f 7 ",
"< K E K K 0 t i i S 6 0 D K D N q o.o.o. .! (  . . .X.( G ~ ! N 4 r j i 6 7 ` ` ` } B 4 i u t 4 * - t t i k x M K x P v x v x < ",
"1 g v C C 4 6 i 6 v 5 0 A A S g q o. .o.o. .! ( ( ~ / ~ ~ B B 8 4 r y y r 4 U ~ ~ U g 4 y i 6 * 5 t t x 0 8 c c m c c A S A x < ",
"  O o o o X o o o o X o o o o X X X X + + O O O O O X O X X X X   X   . .   O : : O o . X X . . . o . o X   X o X X O X X o o X "
};
