/* XPM */
static char *_cdbbdf8164a48e58f4698cf29a63cfbTCL4XG75ZQpmbHvb[] = {
/* columns rows colors chars-per-pixel */
"64 64 155 2 ",
"   c #6F7A7E",
".  c #737677",
"X  c #7B7B76",
"o  c #757B7D",
"O  c #7B7D7C",
"+  c #807F7D",
"@  c #7D8175",
"#  c #7D817E",
"$  c #82817D",
"%  c #848879",
"&  c #6F7A80",
"*  c #757C81",
"=  c #7A7E82",
"-  c #768086",
";  c #7C8284",
":  c #75838B",
">  c #7D858A",
",  c #75888F",
"<  c #7E888C",
"1  c #778890",
"2  c #7D8B93",
"3  c #838584",
"4  c #888681",
"5  c #858986",
"6  c #8A8A86",
"7  c #83868A",
"8  c #848A8C",
"9  c #8B8D8C",
"0  c #918E8C",
"q  c #8B9185",
"w  c #8D908E",
"e  c #9C9585",
"r  c #92928E",
"t  c #9B968C",
"y  c #959A8E",
"u  c #9E998B",
"i  c #818791",
"p  c #848D92",
"a  c #8B8E92",
"s  c #868F98",
"d  c #918F92",
"f  c #869095",
"g  c #8D9293",
"h  c #8F9897",
"j  c #84929A",
"k  c #8B9399",
"l  c #8D989D",
"z  c #939593",
"x  c #999793",
"c  c #969995",
"v  c #9A9A96",
"b  c #92969A",
"n  c #949A9B",
"m  c #9B9D9B",
"M  c #A29A8E",
"N  c #A39D96",
"B  c #A19E9A",
"V  c #9CA193",
"C  c #9EA09C",
"Z  c #A6A297",
"A  c #A2A29D",
"S  c #A8A39D",
"D  c #ACA99D",
"F  c #ADB09D",
"G  c #9797A1",
"H  c #939BA1",
"J  c #9A9EA2",
"K  c #97A0A4",
"L  c #9CA2A4",
"P  c #9FA8A7",
"I  c #97A3AA",
"U  c #9DA5A9",
"Y  c #9FA9AB",
"T  c #A4A4A3",
"R  c #A9A6A3",
"E  c #A5A9A5",
"W  c #ABAAA5",
"Q  c #A2A5AA",
"!  c #A8A6A9",
"~  c #A5AAAB",
"^  c #ACADAB",
"/  c #B1ACA5",
"(  c #B1AEAA",
")  c #AEB2A2",
"_  c #A7B0AF",
"`  c #AEB1AD",
"'  c #B3B4A4",
"]  c #B3B2AD",
"[  c #BBB6AD",
"{  c #B6B9AD",
"}  c #BAB9AE",
"|  c #A4ABB1",
" . c #ABAEB1",
".. c #ACAFB8",
"X. c #A6B0B2",
"o. c #ADB2B3",
"O. c #ADB6B9",
"+. c #AFB9BB",
"@. c #B4B5B3",
"#. c #B9B7B2",
"$. c #B6B9B4",
"%. c #BBBAB5",
"&. c #B2B5BA",
"*. c #B9B7B9",
"=. c #B5BABB",
"-. c #BCBDBB",
";. c #C2BDB6",
":. c #C1BEBA",
">. c #BEC1B5",
",. c #BEC0BD",
"<. c #C4C1B6",
"1. c #C3C2BD",
"2. c #CBC5BD",
"3. c #C6C9BC",
"4. c #CBC9BE",
"5. c #B5BEC2",
"6. c #BABEC1",
"7. c #C1BFC2",
"8. c #BDC2C3",
"9. c #B7C0C9",
"0. c #BDC4C9",
"q. c #C4C5C2",
"w. c #C9C6C2",
"e. c #C6C9C4",
"r. c #CBCAC5",
"t. c #C2C6CA",
"y. c #C5C9CB",
"u. c #CCCDCB",
"i. c #D1CDC4",
"p. c #D1CFCB",
"a. c #CDD1C5",
"s. c #CED1CC",
"d. c #D1D2C6",
"f. c #D3D2CD",
"g. c #D9D2CB",
"h. c #DCD8CF",
"j. c #C6CED2",
"k. c #CCCED1",
"l. c #CDD2D2",
"z. c #CDD6DB",
"x. c #D3D4D3",
"c. c #D9D6D2",
"v. c #D6D9D4",
"b. c #D9DAD4",
"n. c #D3D5DA",
"m. c #D8D7DB",
"M. c #D4DBDB",
"N. c #DBDBDA",
"B. c #E0DDDA",
"V. c #DFE0DB",
"C. c #E1E1DC",
"Z. c #DAE2E4",
"A. c #E1E4E2",
"S. c #E8E5E0",
"D. c #E9E7E8",
/* pixels */
"z f.f.e.W q.1.s.&.h 8   2 2 1 2 j = j | 6.6.p.;.M 7.i.;.S ] ] u.r.#.] Z 2.;.;.Z ;.r.7.r.! 3 7 i 2 2 2 2 > > h _ s.e.3.] $.v.x.T ",
"6 ^ r.@.^ d.l.e.8.h k H 2 j 2 2 2 j = * ! 6.;.N ;.;.i.h.<.v R f.d.R t { g.r.2.2.M ( r.B . 7 a - 2 2 j 2 l h g =.q.x.e.%.] s.( c ",
"@.w ] %.f.-.] ^ T 5 o.j.2 : 2 l 2 j p > ..7.#.;.;.;.;.;.r.W -.W ] 1.W 1.#.;.;.;.w.( :.7.m = 7 b 2 j : j 0.9.7 C W -.-.f.1.] 9 $.",
"l.v x $.v.x c $.^ 3 Q l._ l 2 : I 5.5.t.n.7.7.g.;.;./ M { 1.q.5 O 1.,.#.S ( ;.[ r.c.q.x.k...t.Q * f k P y.o.5 W ` A v q.,.m m f.",
"q.e.r 9 C $ R c.N.@.,.u.0.P f f p 5.9.0.=.-.f.] ;.7.@.#.( -.-.g 9 @.$.] :.] 1.w.T x.-.( y.t.t.d f f U =.a.t.-.v.b.] 6 r v 9 q.s.",
"u.v.9 $ 6 % B q.q.%.e.,.,.g # 8 & 2 2 l p z T 6 7.i.:.p. .u.,.&.-.e.u.^ u.@.:.u.v v ! i J d = i w o g o.1.e.,.1.x.A 4 % r 3 s.v.",
"x.&.m C c 6 4 A r.$.$.,.s.8.h ; n < - p g n # r ;.;.7.r.B u.8.y.,.8.u.z t.q.t.u.v ;  .> 7 7 ; a 8 z ,.u.q.-.%.r.[ 3 6 v E x @.M.",
"t.c -.$.r 4 4 / %.W A ] o.,.c ; > > f - m u.C ,.;./ 7.w.5 L L l.s.o.W O -.u.! E u.J 6.^ a = b 7 8 m o.$.` W E <.[ 0 9 6 @.q.m &.",
"q.q.x.e.x 4 R #.d.:.1.s.x.^ # g < K _ Y w ,.@.$.W $.=.E > a o x.l.c # > n u.o.o.=.^ y.g  .*.G 9 5 5 W u.b.e.-.d.%.[ r 9 u.u.u.q.",
"l.y.x.-.x y %.c.d.r.] E e.t.z 8 K =.V.O.g V W ,.$.r 8 9 # T &.n ^ c ^ z 5 # E Q =.&.n c ( k.7.! b > ,.f.E W r.q.c.:.x q -.u.x.n.",
"u.,.x.@.W ^ W y c @.#.T ` ~ 5 8 8.8.s.` g q 8 6 5 O w ~ g E x.g 9 ,.,.q ` 8 5 ; b b O 9 ( k.k.;.m o L =.T ] $.x 0 ! ] W ^ s.s.e.",
"e.^ q.E 1.r.1.C 3 A e.y.~ 8 - P ,.a.s.q.c w 5 5 O T @.-.c 5 ,.q.-.q.z o q.t.n g ; 5 ! v ;.i.7.7.P f 7 L l.v.E 6 A %.d.q.E -.,.8.",
"-.T 1.$.s.q.r.r.E w o.0.I > 2 Y r.>.' -.%.q.^ q v r.u.e.c r m u.V.y x x $.u.-.` x E t.#.7.:.;.:.U I < f 0.=.w C e.1.r.x.%.-.%.#.",
"m @.s.1.f.q.-.v C o 2 V 8 2 f f -.1.a.>.1.] 3.` ` 1.u.u.A *.W -.r.v %.A 1.y.t.&.T u.#.r.;.;.7.*.n j p < g 8 ; r c @.3.x.w.e.q.m ",
"9 ,.1.,.r.3.,.z 9 8 g 2 2 2 2 f 1.<.4.{ a.<.v.W ,.-.,.,.A W ] x.i.#.W q ,.q.-.q.^ m.-.p.;.i.g.;.l 1 j j > f h 9 9 -.,.1.1.-.e.g ",
"5 ^ ] f.q.x c w L ` P < 2 2 : j V [ [ ;.%.4.d.' <.1.1.1.%.6 9 :.r.x X %.e.1.%.u.^ r.p.:.;.:.;.S k 2 2 > 8 I Q E r m r 1.b.W @.6 ",
"z z c u.r.m ^ @.x k.=.7 f l : f m 1.1.1.} D [ } D 2.;.r.W x m @.^ v B T -.;.[ <.( w./ ( 3.r.r.m k 2 p k 7  .m.B T -.d r.r.( 9 d ",
"g Q m L 3 6 R 7.m 7.@.a * * - K ,.,.q.{ } 2.[ ;.[ N ;.:.w.! @.-.e.*.( r.;.w.[ M <.[ ;.;.:.,.,.y.Y 2 * 7 a ^ 7.m :.#.9 6 T J m m ",
"n =. .o.9 r m u.m z 9 p k H Y +.,.,.s.>.<.i.<.i.;.;./ ! %.T p.v c -.w.x w.v / ;.2.2.p.q.%.u.a.0.5.U L G a 9 d B r.T 0 0 &. .6. .",
"n t.6.u.q.^ ! *.@.6 3 Q =.0.=.K w o.` @.-.1.i.} %.w.f.:.! w.T J W v %.#.:.4.r.2.( i.3.q.@.` ,.w J  .t.6.! 9 3 @.7. . .-.x.&.q.G ",
"8 0.O.~ t.-.u.! E 0 T t.l.y.o.7 # V p V @.,.e.) 1.-.w.1.T -.5 m.C.x @.^ ] r.3.:.[ ,.-.t.C 5 P p 8 ~ k.k.u.! 6 T ! u.q.8.&...y.a ",
"< J b g 6.=.N.=.z x ^ r.u.e.^ 3 < < 8 < z ^ ^ ,.x.1.( W @.*.T p.k.A r.A $.T ] x.q.W ^ m 8 p p w 7 E q.u.p.-.x x ^ x.t.8.n b ..b ",
"U > 7 g =.t.q.q.! ] %.-.q.#.B z h - 8 q 8 ; 9 y.x.~ p. .r.m.@.#.e.] 1.V.1.u.,.,.t.C ; > p g 8 f 9 m ] 7.7.-.-.! r.t.k.8.b ; 7 J ",
"0.h b ; m l. .! @.q.q.*.@.! R -.O.n 8 O.O.> m s.@.m ! -.! z k.x.r.N.W v -.C L ` l.Q o X.9.< n o.*.^ R #.@.-.u.] @.! u.! 8 g p 5.",
"q.Q p 9 9 b &.E ~ &.-.v %.1.! W $.>.j X.M.9.< C h 5 w 5 6 8 9 x.v.m X w 5 w 8 g ^ ; _ M.+.I O.$.( B 3.1.m ` ,._ @.~ m ; n p h y.",
"u.t.z 7 = 5 8 9 c #.u.-.2.-.x v ,.,.C X.9.+.w > 8 < > m 3 ^ d -.u.3 @.5 g 9 # 8 > f ,.j.~ h =.e.B y *.q.-.e.,.C 8 8 a o 5 m =.k.",
"u.N.v b b T ; 9 9 @.u.-.] ^ v :.C y._ _ ,.,.o._ f g g o.a t.^  .1.r x.g Q h g g U o.=.o.=.o.y.T :.A E ] 1.x.$.a 3 7 L m z T M.l.",
"1.u.W *.q.q.g z 6 m  .-.1.p.( 1.E >.>.,.P =.V.+.> < L 8.^ &.6.m c o.=.^ 8.m h > _ j.y.^ $.@.q.E -.%.1.1.-.&.C 8 a g #.u.-.T u.u.",
"w.%.:.r.7.! 8 ; 7 g J ^ %.u.*.p.>.4.' / ( ^ ` C ; 8 P l.8.n y.L w j.C O.z.~ g - h =.-.T ( W ;.;.w.q.u.-.o.T a 5 5 5 U ,.s.@.:.r.",
"g.#.i.w.R r 9 7 a 6 z 9 A -.%.p.r.Z ' ;.S R =.L h f g +.Q p =.y.,.0.V g =.L > b ^ o.E T %.%./ } u.1.,.E c w 5 p 8 8 x m r.i.3.i.",
"g.;.;.( x ! ^ ^ ^ p 5 3 ^ q.@.T [ M ;.' >.-.-.l._ > # f 7 g b x.l.I w ; w < ; _ t.q.-.<.[ ;.u 2.W @.e.o.8 ; a P o.~ #.x ( 4.;.i.",
"2.;.N N x f.u.u.u.=.=.a g L ^ %.4.M ' ;.q.e.-.0.,.- h 5 L ~ ; l.s.z g ` w 8 g &.k.8.:.r.[ ;.u 4.s.^ m g h _ ,.0.s.,.N.T t W / i.",
"r B %.6 %.:.:.r.f.-.m 3 8 8 &.&.3.e D ( G m.=.6.e.C q y #.-.7 k.l.w ,.{ q V V 0.6.7.m.Q ! ;.V 3.&.&.h 8 7 n 6.q.r.u.@.p.9 #.! r ",
"3.@.1.v #.1.u.p.6.L z b - < | o.d.] <.*.a L b | 0.y @ >.#.f.u.k.l.s.a.3.>.@ V a.! G Q d  .7.' 3.=.+.f ; m 9 m :.q.r.1.%.v r.:.-.",
":.B q.B B ] ] -.r.1.b 7 7 p - Q { 4.p.*.9 a i J V q q V 1.f.D.r.s.C.>.d.) y c w G a a a *.c.f.q.~ 8 8 > 8 b @.u.:.( q.B ! f.W -.",
"-.u.( @.%.] b.:.q.M.q.f a G - n 3.h.*.G U k.j.O.{ _ a.r A 3.p.! g q.s.>.q >.{ ,.6.k.n...G ! p.1.K : g h a 6.x.q.-.r.( -.:.W q.*.",
"3.@.@.6 ( f.%.w.m m u.! = i H p V e.` ; * U t.n.8.>.e.>.X p.B.! E a.g.$ { a.-.-.k.6.J = 8 ~ u.~ 8 k > 8 n s.E c 1.*.e.q.c @.:.p.",
"#.-.r.r #.i.@.q.A 9 ! k 7 * s - I T 8 ; k J 5.7.0.a.>.e.( :.g.0 $ 1.f.) >.%.r.u.n.6...G a 7 Q U < f ; a 8 ~ v x ] %.:.1.9 :.q. .",
"$.T b.B -.u.W @.1.q.! b K p > s 7 - 8 p p 7 k o.&.e.,.` S.p.B.B B p.r.C.%.1.s.^ ..a i i k i s i g < f K m Q e.q.#.] p.w.J c.( #.",
"r.] R A f.3.c.B ! s.8.5.G i p < p > p 7 = 7 g o.u.u.u.C ( p.c.M 4 i.g.[ ^ @.u.x.6.b a 7 f s s j < f > > j.,.y.-.T 1.:.x.( E #.m.",
"u.R x :.f.p.e.w.m ! t.J * p > 2 > f 8 > U U z -.7.7.m.p.R p.A 6 t t 1.( ;.x.k.-.7.n ~ Q i s k = p > f > g u.] m 1.r.u.r.r.! T u.",
"C %.1.1.W / ( %.u.#.-.t.Q k H H j > * h t.$.3 9 ( v @.n.7.R 4 g.i.6 B ;.c.*.v *.T = ! j.| = = G f K h K 8.7.&.x.:.] #.@.*.:.u.A ",
"% ] %.^ W :.-.%.-.N.u.j.k.t.j.H < p J &.s.{ v -.*.! + *.*.+ / r.4.1.+ ( 7.= E %.-.C =.y.&.| G = k z.j.8.n.u.x.q.q.:.%.( ! -.u.3 ",
"c -.x.] #.] -.x.B -. .~ 0.| I p i > G &.e.1.{ s.m.S 3 7 4 0 u.:.3.i.m + 9 3 ! u.v.{ e.f.&.G i s i I o.5.&. .q.A ;.u.@.;.-.r.w.! ",
"u.1.i.A f.1.1.q.0 6 c 7 p = > > f 2 C $.e.3.{ >.r.9 a 7 5 y >.V.c.<.c 5 8 9 z -.a.{ >.3.1.~ a s f * 8 p 7 z v 9 1.p.( p.*.p.q.q.",
"q.] q.x r.<.q.;.! + &.b * p l > i g ,.3.{ F ' 1.B d o d o.h P 3.3.{ c ` L # 5 C >.{ F F q.s.U = k p a - 8 @.a m :.q.q.c.r #.:.q.",
"b.A x + @.r.@.B k.m t.^ J s 2 = a 7 W >.' F ' <.] z g 3 ,.j.y >.>.V s.8.a b 5 ^ >.) F >.3.E 7 G > - f Q J 8.J u.! ] q.#.+ m ^ x.",
"q.x 9 3 x  .W :.] t.r.= | 0.Q h f ; ` V.a.<.<.r.r.@.6 g ,.v.V.3.a.e.s.V.0 6 #.1.a.3.>.3.N.8.9 7 8 T 0.&.. r.q.&.:.] @.z 0 9 O q.",
"g &.` c 7 7 3 m &.! x b @.p.7.o.b 7 o.y.T E 1.$.1.] C 6 %.4.4.g.r.4.d.%.r r %.r.1.%.E A y.0.p g o.1.s.$.m 3 ! ! L i = a b &. .z ",
"^ t.P > ..~ 7 i 7 a 7 G ( x.1.-.J > g Q &.y.@.# # ] 1.[ ] <.2.d.d.3.2.} / 2.W 6 X W u.=.~ H > k %.a.s.q.m 6 a 9 d 7 L O.7 Q 0. .",
"t.L w c t.7. .a a m  .! r.q.r.-. .> > ~ y.l.L 9 W r.a.r.W ' ] <.a.S 1.v d.r.1.] r J u.l.~ i f X.$.3.1.r.! T b 9 d ! 6.t.m a U y.",
"e.c m L 7.k.k.! J #.w.( q.] 3.%.Q > > n O.Q 3 m $.q.r.c.3.1.#.) ] ' 1.<.r.d.-.,.^ 6 n &.K i k U ,.<.%.3.:.7.:.! T k.k.t.^ n m e.",
",.-.@.c q.r.k.@.T p.7.p.[ w.:.q.h p > o 8 g # 7 w $.u.1.q.q.q.v C -.x.W c.#.r.x 6 O 5 a < < l 8 e.4.2.:.e.u.p. .@.q.k.7.J @.:.-.",
"1.A A T q.*.w.w.! c.q.p.;.w.<.*.p f p 7 > f b h h ^ $.=.a.%.@.q q o.` e.-.` $.c a n h a < < l f ] %.<.%.r.1.x.#.:.7.7.q.^ J T q.",
"-.3 q *.:.#.q.7.( r.:.( 1.] :.m 5 < - h p h +.Y z m h e.A.o.m 5 8 q O.x.l.w m c T -.L p 8 < 2 h v ] ;.;.%.;.r.*.:.q.&.r.#.x 3 :.",
"R ' T W q.r.] ] ( w./ ] ;.<.w.! g f > f 8 O.Z.h o.=.g &.-.m 8 g n ; n 8. .Q W =.9 M.8.8 < f k < A <.<.w./ #.:.( ( #.r.r.T ! ( ^ ",
"( r.( %.1.[ x W 1.i.q.:.q.w.1.u.O.< ; > 8 _ X.C 8.~ 5 ; n n -.b f =.m b ; = L t.c ~ X.p ; > < Y u.1.u.:.1.r.c.#.! S ( 1.1.N c.( ",
"B / :.[ #.%.2.r.#.p.p.-.( r.r.! { _ X.P w < 8 U y.L h L 8.8.8.J l ,.5.=.~ z C e.` 5 5 h K o.X.+.W w.f.%.3.r.d.%.i.1.] ] w.w.;.d ",
":.d #.R 1.p.f.] %.%.p.q.T J ! 9 8 o.j.8.+.g < =.=.&.o.t.t.,.j.G l 5.=.0.y.o.-.$.q.3 q o.8.y.+.g 9 T T A u.e.-.-.R p.B.w.! *.d 7.",
"B.S w.! ] ( q.f.1.] -.-.J 6 9 7 # E s.V.l.` q E ~ l.t.t.~ m 6.7 ; O.Q ~ y.-.N.` C 3 E u.s.l.o.# 6 9 5 0 -.1.{ >.x.w.#.! ( u.T g.",
"7.T *.( -.-.' e.-.E v 5 x > 3 7 9 y -.e.q.,.T w #.s.k.-.d d J > 7 n b a o.q.m.1.q m #.e.e.,.C w 7 a 9 8 6 c W -.p.*.;.*.#.:.! 6.",
"*.7.m.u.u.,.] u.s.C ; ; ! 7 7 n A r ` -.] e.e.E -.&.x.&.9 d + ( &.= 9 ; o.b.-.1.] %.%.%.,.^ y _ J a 8 T g # w e.r.*.w.u.p.7.7.7.",
"n.*.d 6 m T c c s.m T &.t.k J 6.%.A { -.W -.1.@.^ W $.W 7 7 7 x.n.a = 3 T 1.R W #.%.$.` >.@.S ,.t.L p =.y.E q q.! r B b x G 7.m.",
"q.m 4 0 z @ 6 6 9 5 t.k.6.b 5.5.T y W $.' ] @.] m ^ O 9 9 7 ! j.t.=.; 9 3 6 W A Z ] ;.) @.>.E m &.0.J o.l.t.9 n c X 0 d d 7 d k."
};
