/* XPM */
static char *_f22f70a83274c9387f31c888150ae01SHSfMJwlOQjUmapu[] = {
/* columns rows colors chars-per-pixel */
"64 64 80 1 ",
"  c #231B16",
". c #271E19",
"X c #281E19",
"o c #27201A",
"O c #2A211C",
"+ c #34261E",
"@ c #39261F",
"# c #36281F",
"$ c #38281F",
"% c #362720",
"& c #3A2721",
"* c #372921",
"= c #3C2C24",
"- c #3E2E28",
"; c #3F3027",
": c #3E3029",
"> c #402F27",
", c #412F28",
"< c #413027",
"1 c #44332B",
"2 c #44342C",
"3 c #44352D",
"4 c #45352D",
"5 c #46342C",
"6 c #46352C",
"7 c #47352C",
"8 c #44352F",
"9 c #48352D",
"0 c #49362E",
"q c #49372F",
"w c #47382F",
"e c #49382E",
"r c #4A382E",
"t c #4C392E",
"y c #443630",
"u c #463730",
"i c #4A3730",
"p c #4B3731",
"a c #463931",
"s c #463832",
"d c #4B3A31",
"f c #483932",
"g c #493A33",
"h c #493B33",
"j c #4C3932",
"k c #4C3B32",
"l c #4D3B32",
"z c #4D3A33",
"x c #4E3A33",
"c c #4E3C33",
"v c #4A3B34",
"b c #4D3B34",
"n c #4B3C35",
"m c #4C3C35",
"M c #4E3D34",
"N c #4F3C36",
"B c #4E3E38",
"V c #503D32",
"C c #503D34",
"Z c #503E35",
"A c #523E35",
"S c #533F36",
"D c #503D38",
"F c #513E38",
"G c #523E38",
"H c #533F39",
"J c #4F4035",
"K c #4F4039",
"L c #524035",
"P c #524036",
"I c #544037",
"U c #524038",
"Y c #52423B",
"T c #53433B",
"R c #544238",
"E c #564339",
"W c #55433A",
"Q c #52433C",
"! c #58463D",
"~ c #564742",
/* pixels */
"*=--<525y252y5y:=-y,--====%-,y,-----<552yy5:---=;5:=-#==-*&yy--&",
"*--<1eJPPUPPkkh5=kMdl=,>>>=-llbi5etkVZUQQTUFBnM55kkkl=<115=lbib,",
"@1555idkMkklkt52-tVZZ->1<2*5VZVq<qqekkMUQRUUFZZ55MkJl*q151=lllF,",
"#><55dddkedq51-=<kZIZ=522<=5ZZRq,q5ielkMMMMMURUi2MMJ5=q1q1%lbGb&",
"#$===25eqdqqed5;>kZZl=19i<=5VZR9*225eetkbddde5<=2MZP5:qqi2%jFGb=",
"+#++%=-<1<<:<:===VZRV=7qed,2ZZZ5%=%=--<<---=*O%%<MFFd=qe0,%iFGC=",
"#::2ahnnldvvva5:,VZIV=5qdq=1RSSq&22yyalMnvdaa2:-:BFRi-qqlq&bGGG=",
"=5awaanKBBKBbdny<VZSZ=qqqe-qZZEp*-55a5yannvvyy:*2FMRl-qqpp=bGGG,",
"=:5yydvnvMvnva5:,VAVV=qqq0>9CGZq*--yyydyyynMna2=qRRRb-vpql>bRFE,",
"=-2<5addnnvdy22-,tVAl=qqql-5pCZ>%---5<12::,y5ai-2RRRb2lllq=VFTG9",
"#====---::-==-=*,0qt,$qqql,qtpl&%%%&&+++%=*===<$9IRFb>Vll9=lGGGq",
"+=-<5alVMFMMMMM2>qp0p=qq0l,900V>=5ygqp2q5dypq7<$5ZRZb,00pq>lGZZ,",
"#11<77tVZZZZMMe1>99qk<pqlV>,q7tq,illlZZVkltt5<=$qZIZl,qqp9>VGSS,",
"#;5e7ttVlllqy5<==515q=plpl,>q5912iqpVlVlld55<>>=1lIVp>2qt9=pGSS,",
"$$$<1qttqlqitq5>@>q12>lqbp>><511qplbCplpli55<,>=5tVlp=19q9=0xxV,",
"+$$$+@==->><1<<*+=>=-=51q2@&=>===229y2p2>>=:>=*+;<15,=>,>>&,929&",
"$<=-=+*,=*&<5,<-*1;=;<<<<55<5<;=-y,-&&,,,,=,-,-%===>,22922292q5&",
";twMk=;5yy&iMbFl=5neetZMMMMedd5=-nBsa,i9ii-yysy*=->>9bZFRSRZZlV&",
";letk*:wsv=yZZFi=1edeeeddlltdeq--BBMv-29ii,ysbs*=555qilMVllplpq@",
"$tekM*:wad*5ZbFi=55<55edlbdtw55=-vnBv-9pii,yvvv&*,<diildpptq9,>&",
"=ktkP*:7yp*yZVZq$<<<<=*>:;<><;>=-vvvb-p9jp,yBvB2*&==-,2yiiyiii2=",
"=ktVk=:ayi=,lZZq+++++O+#=*####$@-vbbs,9jjj&yB~B-%%%**--5,5,<-%=&",
"=5kkJ*;1yy=5lCZd#;<==-<<<<<<<<<=,nnns,iCCb,yBBQ--55ybMnMvvvBvyp=",
"=hhMM;::qy=,pVZd+;=<=<<>=7<<<>=$-nBMv,jGbl-yDQQ,:yyaynBBBBBbpby-",
"*eekk<,<52=:tVVl$;=;><<<<<5<<>=$-nnvs-nFCj,yDFBy-55yvvvbnnnday2=",
"*etkk-=<52=:tVZe#$$==-=-<1<<>==@-nBns-FZjl=yBTDy-5,,yydvvvv5525*",
"=qeVd==-<,==ekV5+=$$$#+===-===$+*nnni,Fpbb&2QBBs*====,,,<------%",
"=2ete#=---=-qek<=ee51eelekeeeq9>-nssy,bpdv&yQB~s*=,,ipZFUKMZMvv&",
"%<qt1+*,=-*>5et-#<eteektkZteed7*-vvs2,Fjbp=vBB~d,1119tlVZbVVMii&",
"=,<5<+====#-55e:;577eeeektkkltq-:mvi,,bjlp>pnF~d=,<iqqlplppqq,,&",
"#>>1>+**%%+=,55=$<5q55<5eet511<=-Bsy,,pCvv-sB~Qy*==<q2qqppqppqq*",
"+#%=$++++%+*=$<$+;;#*#+#$#$====#*---&-,9--*-say,@+**++=--->>>>=@",
"@>>>191929q>525>-ql<2=$->>@>>$=*&-,-==-==#$$==##=--=#*5555=>=>=@",
"=,,599ttplpqte5>=VlVS<<5q<=>,,,=-,<<<,,-<====#@+755=-:ekke:5<q>@",
"@=,,>qq5qpt9qqq>=lkZk=,q9>>>11<=-,1<,=-==->=$$#+22q5<5dllq-577,&",
"$=,>>1>>,1q95q1-=lZZt=1lt7>>q11=-5<511<<<><==$@#yiqd<<bdtd;l5qq&",
"+$@$$=$>>&&==><==tVZM=qlll,11qq,+>----=====####+5vyq<1bip9&ptq7>",
"++$<==$$=>===$>$*tSIZ=lZlV11qq0>=5:->><55555<<>$-bll5<d5t9&pltq>",
"+<<<>9q1<<><<1-==VZIR,MZIR,1qlq>$5ddllkMllltq51=5FMk5<Miqq=VGVq>",
"+>$<=>><<,,,>-===SGRF5ZPUR<5qqp>=555dleelleltq7=lkZM5-diq9,SClq>",
"+$$$=$<=<>==>=-==SEEGiZZU!52hel>;55555eedeteeq1$vRPZ<>pp09>GSZZ&",
"+$$$$$$$$==$$$@#=ZERGlZZU!<5del1$;=;====:-<>=-=#dUFZ1>p099=SSSZ&",
"$<$$===>=<<<<>>==VGSG0ZZR!<5lql1+=$$++#========#dZZZ5,9t9q>CGCC=",
"$ttteePVZkkZte5>>VESZqZbRR5<iiM,+=><><<<:<><<<-#eUZZ5=959>@SGCV,",
"=<eeeeddtkttqq5=>lFZVqVlFF5qilM<+$==<<-><<<5<-=+dPZZ2*,qq,>ZGSV=",
"=q7q7qedkPMktqq=>lZVVqlqlZ5itbi:$==;<<<:<5<,<==#iZZk,=,1>,>ZAtp>",
"=<<<<==:<<1<><-==pllt1l1ib1iibv-+=$=====,;>-:=*=qlkd,=>>,,>t0Vq>",
"+=$+++O++O+#==++%====+=%==*=-=-%O#++*++%*#+%++*+@@=&*&+@@%&&&@@+",
";et7e;;<<5=2d555*52y----25:--12-<by,g,vvyy-vv<i,+=*=<<<:5:22,,=&",
";klJJ;<52a=5kdMd*yasyivbyydydyv-ybliv-sMaa,Mb5l2%-,,;15dddiii2<@",
"=VePk=155e=5MMB5*ygayiyyiyyayva-5UZib,BBvg5FZlZ1=<,<75ddMlidltq&",
"=khJe=1e5w*5MBF<%,-2yy5avaivivy*5RFbZyKBBv,RRlb1=5<i5yddMvlllqq&",
"*lJJk=5hli*1MFZq%==----,<-<52,2*5WMVb5FQQB-FEZZ9*--<=+=><<<>=>>@",
"*ePPU=<dll&,ZZQ5=55555<,2<>>--,=i!ZZMdFQBB-~RSZq=---=*=@=$$@*@++",
"=kPPU:7dqb=,ZFUM1iqqdldbvi5255,,d!RFbyBQUKyTRGZq:<<<>>,>-===@@@+",
"=kUUK:5hid55RFRl,iqia5idblq5252,i!RFZyFQKB5TRSZ1<11<>=>--=>=&@++",
"=GRRZ2pldb,,RTTb=iidliii0lqdiii<pUZPM5BUKn5RRZZ,<511<><=>>-$=$$+",
"=ZRRS,lpbi,yQGGb=25:<55aq222515-5UlMi-KUBn:UZZZ==>><,>-==$=#$+++",
"<kRSZ2qlpp,2RSGb*===%*%%+=*-=-=*5Mvby=Bbvv;bMVV*++@*====$#*==@++",
"<tRZZ>1tbl-qSFZp-y2vd5y52yyy222-25il-=vvla=delq@$$-,<<55ewe55,>@",
"<kZVb>5qtl,5ZZCp2vg2pMvbyvvy122*,2ii,=yday-5qt5$=-<<:55ddqlitqq@",
"<tZkl>1q2q>2VVlp2KBBdyvBFBMba22-=,i5-*yy5a-<557$$>5<55kklldlktq&",
"=lklb,<2,5-<pbp9:nKQBMyyvvvy5->*=,5,==5y55->5<>$=<<e5,5dldddplq@",
"XOXXOXOOXXXOXXXX.OOOOOXXX....    XXXX.XXOOXXXXOXOOOO. .O..XXXXXX"
};
