/* XPM */
static char *_1d3a3a3bc2d4aeade3d51d6eb40f627CNrJaYklVUK7PKCv[] = {
/* columns rows colors chars-per-pixel */
"64 64 149 2 ",
"   c #052E35",
".  c #043336",
"X  c #0B3237",
"o  c #053539",
"O  c #0B353B",
"+  c #053A3C",
"@  c #0C3A3E",
"#  c #12363D",
"$  c #18363E",
"%  c #123A3E",
"&  c #0B403E",
"*  c #0B3740",
"=  c #0E3C41",
"-  c #153740",
";  c #133D42",
":  c #1A3E45",
">  c #143F48",
",  c #1E3F48",
"<  c #213B45",
"1  c #223E49",
"2  c #074240",
"3  c #0E4143",
"4  c #144145",
"5  c #1A4146",
"6  c #164349",
"7  c #1C444A",
"8  c #15484B",
"9  c #1C494D",
"0  c #1E4C51",
"q  c #1E5051",
"w  c #22454C",
"e  c #2A454E",
"r  c #22494E",
"t  c #284B4F",
"y  c #264751",
"u  c #294751",
"i  c #244C52",
"p  c #2B4C54",
"a  c #274D58",
"s  c #2D4F58",
"d  c #304651",
"f  c #324D56",
"g  c #394E55",
"h  c #324E59",
"j  c #3A4F5A",
"k  c #255257",
"l  c #255155",
"z  c #295055",
"x  c #285157",
"c  c #2B5056",
"v  c #2D5056",
"b  c #2C5156",
"n  c #275258",
"m  c #265358",
"M  c #265559",
"N  c #2A5158",
"B  c #2B5259",
"V  c #2A5359",
"C  c #2E5059",
"Z  c #2F5059",
"A  c #2D5258",
"S  c #2C5358",
"D  c #2E5359",
"F  c #2B545A",
"G  c #2D545B",
"H  c #2F545A",
"J  c #2E555A",
"K  c #2A575C",
"L  c #2D565C",
"P  c #2C575D",
"I  c #2F565D",
"U  c #2D535A",
"Y  c #2C595E",
"T  c #335257",
"R  c #395056",
"E  c #305158",
"W  c #335058",
"Q  c #315259",
"!  c #345159",
"~  c #35505B",
"^  c #35525A",
"/  c #36535B",
"(  c #31545A",
")  c #33545B",
"_  c #31535C",
"`  c #37525D",
"'  c #37535E",
"]  c #33545D",
"[  c #33565C",
"{  c #33555E",
"}  c #31565E",
"|  c #34555C",
" . c #37555D",
".. c #34575D",
"X. c #37555F",
"o. c #36575E",
"O. c #33545C",
"+. c #39515B",
"@. c #3A525C",
"#. c #3B535D",
"$. c #39545D",
"%. c #38545F",
"&. c #3A555E",
"*. c #38565E",
"=. c #39565E",
"-. c #39575F",
";. c #3B565F",
":. c #3A575F",
">. c #3C545E",
",. c #3D555F",
"<. c #3E545F",
"1. c #3A555D",
"2. c #30595D",
"3. c #35585E",
"4. c #3B595E",
"5. c #2F5A60",
"6. c #355760",
"7. c #355660",
"8. c #395761",
"9. c #3A5661",
"0. c #3B5762",
"q. c #3C5760",
"w. c #3F5761",
"e. c #3C5661",
"r. c #335860",
"t. c #335A61",
"y. c #345961",
"u. c #365861",
"i. c #375C64",
"p. c #355A61",
"a. c #3A5860",
"s. c #385A63",
"d. c #3D5861",
"f. c #3E5962",
"g. c #3B5C63",
"h. c #3D5B65",
"j. c #3B5D66",
"k. c #3B5B62",
"l. c #3E5F68",
"z. c #386167",
"x. c #3A6166",
"c. c #3A6168",
"v. c #40555D",
"b. c #435663",
"n. c #415963",
"m. c #425863",
"M. c #415A64",
"N. c #425E69",
"B. c #42656B",
/* pixels */
": N P 8 @ ; 9 a + o y 6 o = 9 _ 9 @ % t / / +.m.9.u h +.h p i 8 9 > p a ) 7.d h J b ) n.f.r 4 4 5 H K 6 @ : 0 i . 8 0 ; > 9 i I ",
"# : 7 ; @ * 7 p * = i 7 o = ; : % # & t =.=.+.v.w 7 y u w 7 6 = 7 ; : > w A y u l H *.v.@.p 5 @ $ 7 7 = * ; 9 y = 8 0 = o * 6 : ",
": : ; ; * ; 1 p 2 = i 7 + > ; # 4 5 r T *.n.#.j ; # 9 a i 7 ; @ > O - : 0 N 7 : # t =.,.@.=.s 5 , : ; @ ; 7 y y > ; 9 7 o X : ; ",
"s a y : : y s u = @ y y ; 6 9 p z J ) 3.*.4.#.f 6 = 9 N a i 7 = 5 = 9 9 m P 6 = # r =.=.,.n.,.T A p w - 7 s u 1 ; @ 0 I : ; i i ",
"s r.N > 7 _ 9.f = O s 7.0 8 9 7.m J J t u T / / k ; ; 6 9 9 9 - ; ; 0 9 0 0 * @ J T 3.=.T T t v s r.i > 9 0.0.1 - ; r.i.9 : N F ",
": i 0 ; : s 9.h > - ' j.i 3 = y 7 7 5 5 4 w p | i.9 @ X   ; 7 > = @ 6 = @ = @ 6 f.*.) p w $ 5 9 > i 0 ; 7 p.h.h > 7 t.r.> ; 9 0 ",
"@ = = = ; : p 9.7 y 0.~ 6 3 ; : & O % & 4 @ 5 l N.u 7 - O * > : @ o ; = @ 7 7 p / / f & O & 8 & @ ; 6 6 > w s q.w s 7.i ; ; : ; ",
"3 * 3 0 6 @ : 7.y s 0., o 6 7 : 3 & 4 7 4 . o 6 b.h 7.I 7 = : ; @ * 6 7 w s a 0./ 4.p # . 4 3 + 4 = 4 8 6 @ 7 h.y _ s : ; 7 7 6 ",
"$ % w z r : % w y i i 4 3 9 a y y : * = ; ; , u s : p 7 ; 9 = 6 @ O > 7 ; 7 i : 9 p.T : $ % @ 7 % $ w p r % : r y a 9 ; = 7 u u ",
"t t z z r : % 5 p N i ; = 9 a a r.i 6 6 : 7 p 9.a X ; ; = 6 = 4 : = : 7 4 ; : = 7 p.3.w w 4 @ 4 z t z v r $ 4 r h A 0 ; ; 9 a s ",
"J m z t 5 % % 7 *.| i ; = > y 0 I N i 6 6 y a | i @ = > 6 9 6 8 9 6 ; 6 9 * . = 9 3.| p t 9 4 8 J m t q 5 # 5 t 9.[ a ; = 8 a i ",
"9 7 4 4 % % 5 t f.4.T 5 ; ; > ; > 0 i 9 i a p w 9 . o ; ; = = = @ 6 3 ; 9 > @ = 9 p v r t t t l 7 7 5 5 & % 5 m s.| u 5 ; ; 4 4 ",
"@ % % & ; 5 p 2.4.4.T f w 7 : = O > y i p A a 7 ; * 6 0 6 X = ;   8 6 o 6 0 6 ; 7 7 r t t z m t @ % & $ ; 5 p 3.T [ J t 7 4 % + ",
"& % 5 w t v / f.R R 4.R +.s y 7 = = : 7 p s a 7 ; 7 i P 9 - a p   i i ; : a i > 4 & r J v v t % % & 7 t p v *.N.T 1.4.4./ p w 5 ",
"4 5 t T / 4.4.4.T 4.1.4.n.=.) v 8 = - : y y 9 : O 9 i a : - ) A ; y I w : p r.i 4 @ r T p p w O ; 7 z 2.=.=.4.4.T 1.v.v.v.R T b ",
"$ r v *.B.v.R R x.T 1.R ,.,.=.=.0 ; - w s p : ; : r.I _ w 1 N.=.w y h s 7 p 0.[ 7 @ 7 z r t w # : r T 4.M.v.@.R T T R R v.v.R 1.",
"7 4 4 8 9 7 a y.v.m.f w r 8 & w 8 % % m f.) 5 ; r ) 3.p.g.) u v $ w p =.4.T +.M.t $ $ v g.f.t # 6 & 5 9 r r z [ v.v.u y w 9 6 6 ",
"5 ; @ @ * @ ; ; t v 5 @ & @ . @ & 4 t 3.3.t 5 4 r T 3.3.3.v u ) p p e p +.M.4.+.q 4 5 t J 3.4.p 4 @ O @ @ @ & 5 ) i 7 = = @ * @ ",
"p w 4 @ @ = O   & 5 @ . & @ + 4 w t J T w 5 % 4 5 r i r p e t | / 4.f w w ) p w 7 & 4 5 4 5 J 2.r 7 & $ O X X O 4 3 @ o o @ 3 3 ",
") 3.H i w w 7 # + + @ & 9 r t J J 3.v w $ 5 & 4 4 5 5 $ w t T f./ n.f.p < : 5 ; 6 % & 4 O # 7 r 2.T T v r 7 4 4 + + * 4 7 i i m ",
"t J 4.3.) H i 7 O O 4 v / ,.v.m.g.v 5 $ 5 r 9 & 5 i r r ) 3./ 4./ / 4.f.v r 7 i 7 & 7 r 7 6 5 $ T ) 9.*.=.v i 8 . = 9 u ] e.0.0.",
"% t [ v.=./ T p O O w 4.m.v.b.v.z 5 # 5 T 2.r @ w T ) ) g.4.p w v w w ) g.3.) 3.9 & 4 z F b r O 7 t +.v.f.*.m i . ; u +.b.b.#.#.",
"@ & f 4.v.#./ R & o r g.=./ T p & % 4 v *.J 5 % e +.*.T z r 5 % w % ; w z 2.4.*.r % % t ) 3.u : % 5 T #.q.q./ i o ; a +.0.7.f u ",
"& & & T v.v.R R & . 9 g.[ v J q % & r 4.3.w % 5 e 4.*.w : 4 & 4 7 r 9 $ $ r / 4.m : % t [ h.| y O 5 t f @.v./ u + 3 a 7.9.7.a 0 ",
"d % % 5 l Y J w & & & l l r 7 5 : i A N 0 : : : q.] 7 . & r % r 3.t @ % 9 @ & B.] y ; ; 9 I y.9.7 % 5 t z 2.m 5 * 2 9 l J t 8 & ",
"4.w & & @ 5 r $ O O O 5 7 5 % % w ) t.i ; ; y _ / p r ; 4 4 % 2.T 3.t 4 6 4 & w ] s w : : y s 9.2.5 # # # 5 5 $ + @ @ $ 4 5 & @ ",
"J t w w % % $ # w : $ # $ 5 : : p A i 7 # : s 0.w : 5 5 5 5 O z / ) 5 X & 4 $ 5 y s N 9 = ; y s J r 5 & % % % O 7 4 % # $ 4 5 5 ",
"z t z b r r r 5 1./ t 5 5 r p w y w : ; 7 a I p w # % w z i # % / 5 # 5 z r $ : ; p t.a : ; : 7 5 r J T r w r r 3.H u t r t t l ",
"b t t v v / p.2.1.4.*.T ) 3.T t p y : 6 i r.s w 5 : r p T 4.p r p w t 3.p.J r 5 = i I G i 7 7 r t t H 3.v H p.3.J ) ) / / / b i ",
"z r p / 3.g.3.p 5 w v 3.x.f.f w u a 0 : ; y a 1 5 w 3.s w ) 4.x.T f.B.2.5 z T t : 6 i i 9 ; 7 k v w p 3.4.x.2.w 7 9 z / 4.*.b t ",
"r r v 4.=.) i ; O @ 5 v 3./ f e p p y - = 7 y , 4 & T T < e s 4.n.4.3.5 O r 2.w 6 = > y 7 # 4 K p w z 3./ / w X & & r p ) +.T p ",
"J z t f e e r 5 4 & & r p p f +.s p 7 = 9 I s - 9 # v 4.e w w w n.w < r z / p # 9 6 w I p ; 4 K v p T p w 5 w w & 3 4 5 w p u p ",
"9.9._ a ; . = q = 6 6 + . ; a i.e.9.y O : G 7., * 3 6 ; 9 i 1 < +.w : 0 i 6 ; 6 o 6 P 5.y - 7 _ 7.6.[ y @ . ; 0 ; 8 3 o o 0 t.r.",
"w w i a 9 = = = @ 4 6 6 = 6 y p 1 u w ; ; a i - = 6 6 ; 7 i s 9.h.| a i 9 ; : > ; 6 9 9 : = 7 P 1 , 7 9 7 = @ * ; 6 6 6 3 6 7 y ",
"w 7 ; # * ; = = * : 6 = = = ; - 1 s m 6 = 6 ; . : a 7 ; ; 7 a l.e.0.] w ; : 9 9 7 - - - ; : 0 5.a , - ; ; = = 4 ; = 3 6 ; @ @ : ",
"r.I 7 @ . ; 6 ; = ; = o . @ : 7 I 5.k 4 @ * ; = f 6.I w > : 7 I j h u 7 - 7 a 7.h 7 * * = 6 0 K c.[ 7 * @ = 6 6 ; = = = @ * , u ",
"i I P 0 6 ; 4 = = = = o @ ; a 0.0 8 = @ @ ; 7 0 h.N.s w 7 ; 6 k 0.p , 7 7 9 i i.j.A 7 ; * @ = = y I K 9 = 4 ; o 7 6 3 + * 9 N r.",
". 6 0 9 6 ; = = ; = = ; = > 0 s * o . @ ; ; ; 6 ] s 7 = = = ; i N.y - - ; = ; 0 N i : ; - * @ X . 6 k 7 = ; ; o ; 6 3 * = 9 i y ",
"* + @ = ; = @ = 9 = = 3 6 ; * # * o ; y y ; @ @ 7 6 @ . * + * 9 h.y @ o o o o = : = = : r i 9 - o + * = = = = ; ; = o = 6 > ; # ",
"0 * @ 6 0 9 = @ 9 = o = 9 9 - # 4 6 9 [ 7.1 ; > = 6 3 3 3 + o ; [ i 6 o + 3 3 * 6 = = 6 I p.a , 9 + o 6 0 ; @ = 0 * . 6 9 ; O - ",
"p I 7 o ; 6 = 6 9 : 6 9 ; = ; = r p t t / *.t X : ; O 6 @ = o = ) w ; @ * = = % 3 ; r [ 9.f u s / a - . 6 9 : 7 7 % % 5 7 % 5 5 ",
"p A i ; > 8 m t.> 7 m N ; @ 9 i p i w $ w / / t 7 9 - 6 ; 6 * * p.i > ; > = ; % 6 r A 6.u : : a u s 7 ; 6 0 N 6.: 9 J l % # r v ",
"] 6.r.i ; 7 a p.6 0 5.I : - a 0.| v w # : H f.g.i 0 ; ; = 9 = o f , * ; 6 ; & w i A 0.r., O ; m h 9.p.y * 7 I ] 7 m z.t O 5 T 3.",
"] h i.I : - w w k 0 9 9 : y _ i.I H i 7 7 b H H i N 9 = - 0 9 ; p , > > 7 % 5 z s s ) a 7 ; 9 Y +.6.h.a X : p w r q r 4 $ r g.4.",
"y 7 i a : : a w a 9 6 : : w s a 9 i y 6 5 9 7 ; i I P : ; 9 I N / J a a 6 * 7 2.6.y 7 w 9 7 7 a y y a 9 ; 9 s 1 q 7 5 5 5 w z t ",
": ; : 7 ; 7 s ] , y p i : : 7 : > 6 > ; ; 6 : * 7 N t.7 - : I p.T / r.a > * r p.6.w = ; 7 6 ; : : ; ; : 6 i s e w 7 t z 5 % ; 5 ",
"7 6 ; = 6 : y ] y u 7.s : - 6 ; 6 > > = > 6 6 = @ 7 5.7 : - s | f ) N 7 - , s g.a : o = 6 : * # ; 6 = 6 6 7 w ) t v 3.l % @ 4 % ",
"* 6 = 6 0 7 : h b.9.7.p : > 8 = > > = = > 6 > * O 9 t.y 7 - s | 4.f.[ : * 7 I 6.6 @ o = 6 6 : : = 8 3 3 6 = 4 x.*.4.T 5 O 7 q 4 ",
"p u r 9 7 & % z 4.v.T 9 4 ; 6 7 ) r ; O % 4 4 + < T 3.8 @ & v 4./ *.J 7 % 5 m 4.m 9 4 % 4 & 3 4 _ u 7 4 8 3 4 m 1.4.[ t % % 7 t ",
"=.s 5 % 4 4 5 v R 4.) r & ; 6 9 2./ / p 5 % : w p 4.2.9 % 5 T N./ 4.2.r 4 & t J 4.v w w 5 7 5 7 ] p 8 3 & % 5 *.4.1.t 5 & 5 9 9 ",
"z r 4 4 7 5 5 t g 1.T t ; ; 4 7 w T *./ f t f ,.3.2.l 4 % 5 T ,.+.=./ l 5 # 7 z v.f.=.T T / / T r r 7 4 4 & 5 / v.v.t 5 = ; 4 6 ",
"% 5 4 % $ $ w 3.R 4.3.t 7 ; ; @ $ % 5 t 3.M.n.4.J r 4 O % w f d T f v t 5 @ & 9 p / M.f.*.*.) p % 4 % & 5 5 r *.g R 4.z = o @ ; ",
"& & # O $ 5 i x.4.*./ v i i : # & + @ 6 l m t 5 7 & O % r J T e p p p T i 7 % @ : r z t t r 7 O 5 4 O O 5 5 p f.g 4.4.z 9 6 ; @ ",
"% : ; 5 T 2.t r v./ T u p b a y 4 3 & & & 4 & @ % # % w J 4./ p 5 u / | ) z 4 X O # % & & & & & % 5 9 r v v t T 4.T t r m 3.k : ",
"% r v ) g.z 4 4 4.1.p w 7 u s ] t r 5 & % @ & 7 5 5 z v z z z J O r H p u p t 7 5 % @ & 4 4 8 7 $ z 3.*.2.t 5 5 x.T 9 5 r I [ a ",
"r 3.x.T 5 # % q 1.1.t : # : h 0.M.T w $ 5 5 7 7 w v 3.b w % 5 t . 6 t : $ e 3.3.v w 5 r t & % @ t f.4.p 5 % 5 l 4.J r ; O : h N.",
"- 9 m m 7 - w 9.f 1.3.i 4 5 i P q 7 4 $ w T *.*.j q.s.F i : 7 9 8 7 4 : 7 i ] 0.4.n.*.=.) 5 # 7 % 9 F m , > u 9.T 4.) 9 ; 4 i r.",
": : 6 > = ; 1 s 4.4.2.9 4 ; > > 4 4 @ % r T f.*.h._ i 4 * @ ; 6 9 8 6 ; = ; w a T / ) 3.x.b 4 $ % : 4 > * > a r.4.4.H 9 ; ; 6 > ",
"> - X o o @ = 4 J z 9 4 = * O   $ $ % 5 t 2.T v a 9 = o o = > 7 5 7 7 : O X ; 9 w t r l p.3.t 4 $ % . . * * = > 2.l 8 @ * = *   ",
"9 : ; = 6 = + o 5 4 & + * = ; ; $ w p b m l 5 % ; = + * = ; ; : 4 ; 4 ; * X ; 7 # 5 & # r m m b w 7 ; ; = = * * 7 % O + = = ; - ",
"_ I a p 9 8 > * 2 * @ + = 7 i I f / *.J r 6 $ # ; = 3 6 4 2 = @ ; * = ; ; = = 6 X 4 4 O # w z p.[ T z l 0 > = * = * o @ 3 9 a s ",
"9.0.0.A y 7 6 3 = = = = 6 7 p =.M.f.2.9 & 4 7 w 7 6 2 * * = = ; : = @ = ; @ * ; : r p 5 & % 5 v 4.3./ v y 6 6 6 = = = = 6 9 s =.",
"u 7.6.h u w 9 6 = * = 6 7 w p @.f./ t & % 9 A ] p 7 = o + = 6 6 4 = = ; = + + 6 t / 2.T p 5 % 8 p ) / ) u 1 6 9 = * = 6 r r f +.",
"w _ 0.0.7.s y 9 * * ; 9 b f R v./ p 5 @ 4 z 6.q.0.u ; . @ 3 3 * : ; ; 6 = o = 8 ,.,./ / / 5 # % t ) f.n.%.u 9 6 = * = 9 b T +.v."
};
