/* XPM */
static char *b0e532eb24b349faa4f1cc2d7874ae77JycKzu5IrQOjsT8l[] = {
/* columns rows colors chars-per-pixel */
"64 64 123 2 ",
"   c #00051F",
".  c #000721",
"X  c #000C25",
"o  c #010E29",
"O  c #080F29",
"+  c #011226",
"@  c #01132C",
"#  c #0A152E",
"$  c #01192E",
"%  c #09192D",
"&  c #10182F",
"*  c #031631",
"=  c #0A1532",
"-  c #031B34",
";  c #0A1C35",
":  c #041E39",
">  c #0B1E39",
",  c #111731",
"<  c #121B35",
"1  c #111E3A",
"2  c #1A1F3D",
"3  c #032136",
"4  c #0B2136",
"5  c #05223B",
"6  c #0C233C",
"7  c #02283D",
"8  c #0D283E",
"9  c #102037",
"0  c #12243D",
"q  c #18243D",
"w  c #14293E",
"e  c #19283F",
"r  c #191F43",
"t  c #052641",
"y  c #0C2541",
"u  c #052A42",
"i  c #0C2B43",
"p  c #0D2C48",
"a  c #132641",
"s  c #1A2542",
"d  c #142B44",
"f  c #1A2B45",
"g  c #152E49",
"h  c #1A2E49",
"j  c #0D3247",
"k  c #0E334A",
"l  c #0F394F",
"z  c #143146",
"x  c #1A3146",
"c  c #14324B",
"v  c #1B334C",
"b  c #113A4D",
"n  c #1C394E",
"m  c #0C3C50",
"M  c #153650",
"N  c #1B3651",
"B  c #153A53",
"V  c #1C3A53",
"C  c #1E3D59",
"Z  c #212C47",
"A  c #212349",
"S  c #222F4B",
"D  c #22344D",
"F  c #28344E",
"G  c #233A4E",
"H  c #233651",
"J  c #2D3252",
"K  c #233B54",
"L  c #2A3C55",
"P  c #243E59",
"I  c #2A3E59",
"U  c #303E58",
"Y  c #144156",
"T  c #1B4357",
"R  c #1D435A",
"E  c #1D4A5E",
"W  c #244257",
"Q  c #2B4257",
"!  c #24435B",
"~  c #2B435C",
"^  c #254B5E",
"/  c #2C495E",
"(  c #31455E",
")  c #39425F",
"_  c #30495F",
"`  c #1E4D62",
"'  c #1F5061",
"]  c #254561",
"[  c #2C4661",
"{  c #244D62",
"}  c #2C4C63",
"|  c #2A4769",
" . c #2D4E69",
".. c #324561",
"X. c #334C64",
"o. c #394C66",
"O. c #334D69",
"+. c #394E69",
"@. c #245165",
"#. c #2B5266",
"$. c #255369",
"%. c #2C536A",
"&. c #275869",
"*. c #2C596D",
"=. c #335166",
"-. c #3A5067",
";. c #33536B",
":. c #3B536C",
">. c #34596D",
",. c #3A596E",
"<. c #2F5C71",
"1. c #345672",
"2. c #3A5772",
"3. c #345D73",
"4. c #3A5B73",
"5. c #3B6375",
"6. c #3E6079",
"7. c #414465",
"8. c #43546E",
"9. c #455670",
"0. c #455A75",
"q. c #485D78",
"w. c #45657A",
/* pixels */
"- N > X h :.K r * y H a a a : 9.2 2 Z z n j z d $ D ) # = > f O. .R t = o r 7.= 2 f - @ Q 0 F < K G @ v 4 6 _ @ 6 X I ~ X o g a ",
"6 > - f N +.8.~ o X : ; * : > L < , 0 f W 8 x n 4 1 A o = o ; C *.k * : o = J r < h f d ..0 f X D Q - 4 5 6 6 - 0 v +...r : r g ",
"g d ; h * o K :.g * ; a 6 6 g h s f 4 6 z 3 T V 0 @ 1 1 1 @ 4 { 3.B - > r O r , e D n d K ; s ; d n 6 4 - ; X @ 6 o.[ v N y : y ",
"* H h K I * g +.H g y d d r a a w F w @ - $ G w ; + ; s 6 5 c =.%.{ u : > > , . f x d - > @ Z Z e 6 f K - f z - +.0.0 o r a g v ",
"o d d > O.h d ; d v a d h y > v @ w 6 @ - $ v > 0 0 1 6 4 c @.&.` 3.] p y y r ; 0 a 0 * ; @ s s 0 6 ; L 0 f Q 0 d H d n | C g - ",
"H g N ; S ~ | * * g a > h g y ( 0 ; 4 @ - @ 0 f f Z * * i } 5.@.@.*.*.C y o > S d 6 4 - + = 1 ; s F * 1 a 0 d 0 6 y v P g a N p ",
"* * a : y ..H ; * ; y - > a * v n @ w $ - % * Z ; f @ 5 b { @.' ` E { T i @ * g f 4 ; @ o > 1 % G L w w 0 f ; d - 6 O.O.g M N p ",
"I H ; o > :.* a N ; h 6 - 6 * ; - + D * ; 0 X ; 0 ( v =.>.@.E *.&.E { %.} | N d 6 @ * ; ; f 0 @ e X 0 s + a ; - * 6 [ g * p y : ",
"y H I y H ..o a y g h > y > d > - 4 8 ; 4 w ; @ w x >.,.@.@.' @.&.` { { &.4.} y - + ; 0 o D @ ; 0 = ; ; X D d d g y d ] 5 - g ] ",
"K a P +.I d > y d * * y * N I - @ 0 D d = ; @ * 8 z =.^ E *.B 7 7 B $.{ ! ! W x 5 * ; 1 ; d ; % X D F 1 ; d ; K N y y P } O.C y ",
"I K * H [ f g * ; a o y ; > > d G ( 8.U e 1 * @ - z 5.#.T #.j 5 - c R { &.#.T i X @ ; s F L _ f * w h 0 + ; * 0 * : g V :.| K z ",
"* S f P g o f v a ~ v H g * - H w x L e , ; @ X + b >.^ k z i - - u u u { >.c - 6 ; @ o ; F ( G D ; * 6 4 a 0 0 - 6 v f O.d g ! ",
"> X g o.d > H g H H H N g f +.d d D L D q w 3 $ T >.#.^ V z P y t N c p T *.} Q X X 1 Z s o.d 3 d Q 6 $ L Q n ~ | h y * +.H g y ",
"N > P h * y d a y H g o * g q.0 > s J Z % +   + ^ *.T b 5 5 H f d N p : 7 T { X.0 o o = # o.x W $ o.~ ; d v F n h v a * [ K a o ",
"X...h * y H > X y I f > * 6 +.v o + < < + @ 4 T #.&.*.Y 5 v H S h L H p i { >. .v ; o = o s $ - - ~ Q - @ - D 6 X r S * s y h N ",
"h h o.+.d * > a K f d 8.- * o.h 0 @ + X @ ; w #.>.' 5.8 f +.a + o a I C j R >.~ _ s + = * @ @ X w _ w X n w v H - : y > g g J | ",
"~ * 6 X.Q X d K f - X.s @ 9 8.~ V b u 3 i ] ,.;.4.=.w.} =.x + 4 - $ - V =.#.} #. .[ K : @ : 5 i 8 _ n X D _ w 4 w 0 6 d P P O.t ",
"* Q x 0 Q f d Q K w f ; @ ; J ( %.$.{ R #.6.4.} V d K n -.z + n n $ 8 / W z z V ! } ;.! M R C ~ X.Q 0 X 4 D w w Q d + G X.: * N ",
"- ~ x 4 x W x 4 0 ; X + ; ; @ G 4.3.*.*.6.4.W 5 3 $ - - n 8 + W W + d n 4 $ $ 3 5 V >.;. .=. .;.X.0 ; $ + ; 4 4 x w z K * v ] : ",
"4 4 3 n Q -.K ; @ @ + % e ;   w ;.*.%.*.1. .g + @ + - X $ 5 3 w x $ 8 $ + 3 + $ + 5 | ;.=.;. .=.v X ; w % X @ % % D G G y p y : ",
"Q n z :.:.Q + + 0 ; x f e ; @ y }  .#.1.,.;.~ V 4 @ 6 d $ 6 d 6 z 6 w $ 0 v + 5 8 c } ;.>.1. .O.0 + ; 0 0 < % ; % ; L X.| y 5 M ",
"w $ n -.G z 6 6 @ ; L D 0 ; ; 4 #.%.;.=.#.X.X.:.v @ 4 ~ d - 5 ; 0 - @ 6 I h X d X.~ O.} =.4.O.-.a * @ 1 F D # O % X Q X...K ! N ",
"j $ ! K @ + 6 $ @ ; d s = @ + f ;.=. .W c y f K K > @ L v ; o > ; + @ f H > * v I v v z C =. .=.h = @ > Z F < + % < ; > X.c . g ",
"z n W - - @ @ D v F ; 0 X * + ~ O. .W c - X o : D h + 0 n d * d a 0 0 h a @ 0 h > o o + i ! / =.~ * o * @ q e e 0 6 @ + y [ t : ",
"#.} 8 $ @ 6 4 v ; 1 + X ; @ $ ! =.! $ @ 4 @ * o . a a o d K > > 6 * h r o r > * @ @ @ : X @ W =...- @ ; o # q e e # X @ $ d =.c ",
"X.W 3 6 d D > - @ ; ; * $ 6 K :.} n $ 3 X @ v K d - > y t ; > K h h * a f > > o K h @ @ - $ n / [ c - @ @ @ # = < 9 9 0 - 6 } / ",
"-.n $ @ 0 D 0 ; @ + - * + z =./ 4.z $ i X + 0 6 +.N f 6 ; v I I I O.d y a ; h ..f 0 X X 6 + j ,. .O.z + * ; + @ % q e 0 $ $ W -.",
"/ d + @ 6 a a d > @ - - 6 ^ ,.^ >.n w ^ 8 4 - $ H H N > y | C : y M I : > N f ) ; @ @ - n - z ^ } 1.C - - ; @ % q e 9 $ @ $ d X.",
"K 6 > a f a a r - * + : V #.=.#.#.Q W >._ W - 6 d v N y g N y N p y C p y H N h ; X s L / G ^ } %.@.! z $ + @ @ q e 9 ; ; $ 6 / ",
"K - * d J a r * * - 6 v ] } { *.W n 8 z X._ w - v N y : N N y | C B c N y ; H s + ; ~ :.x d G T $.$.&.] 8 @ @ % % ; e e 6 $ $ ! ",
"L * @ 1 h = r = s y K ;.=.#.*.^ 3 + 7 $ W X.W 3 * : y > v ] p t t B B C y * y ; ; K o.( $ 3 + - Y $.*.{ ! d $ ; % + w e 6 @ $ K ",
"v + ; d h = a a 1 o v  .! $.*.i $ $ ,.G z x W 4 d 6 g t - g P P B ] N * : h y a ; L f x x :.- - 7 $.@.] ,.W * 0 s % < w 4 $ $ n ",
"D $ 0 f 1 1 @ % > h : v  . .%.p X ; f ( L - + @ ; * N g o g g N C g g X h v @ ; o o o H +.L r o : {  .%.N * > o = = = w s @ @ v ",
"G + 4 w ; @ @ @ = K g P O.$. .p - + X ; 4 ; 6 s g P g d t * y : - > * - d a H d h r ; > > o o * : |  . .K y h > @ = * ; 0 $ @ G ",
"Q + $ w ; + @ - N X.! ] 1.@.` 5 @ @ $ % @ ; v ( o.I I y p r o : * o 6 y ; H K ~ ..h ; o > > = * : ` #. .! V P a * @ * @ 6 - + K ",
"X.$ @ x w * ; 6 y [ |  .%.$.$.Y 4 @ @ - D X.X.O.+.v I t a g * t y * d 6 * I h ..o.O.O.H > = o * 5 R %. .} O.~ 6 > o ; ; 0 - + / ",
"=.8 + 8 8 $ 4 y - ! #.#.{ ` $.3.n 5 @ X @ d d v v y > y y r P r y P - - y a g h K N f ; X o + - k ' &.%.%.;.W 5 6 + - 0 6 $ $ -.",
"_ n + $ 8 - 5 v g V R ] &.$.` $.>.Q W 4 X @ - v > o > ; : H O.N h X.g @ : g * * H ; * o > K v C %.$.%.@.{ ! n y v - $ 8 ; @ z =.",
"e Q 3 $ d > 4 x i - : c %.*.` @.{ - * + : i @ - * * h * * 8.H g h K +.* * g o * - o a * o * - K %.' { ' V y 5 y v : $ 0 @ * Q v ",
"+ W 5 % v y 4 c - * u B ! B k @.>.7 - - c V - - o N > * r | H o @ v ~ t * : h * - o d t * - ; O.T B T ! b $ + 6 g 0 * s @ ; X.o ",
"L w 1 - f a e ; o v g ] ! X C ;.C 1. .! O.5 o * g K a * g h ; y y o > g @ : H 6 X o : } K [ :.~ ;.z + =.W h * * > a s > * > h h ",
"w % * @ a 1 0 ; = v * K v @ - i i ] { %.#.C M K X.| d o : > o g y * - : + - K O.P d d ~ X.} ~ 5 n @ + v K v h X 1 = > 1 = = r J ",
"= ; s = 1 > a > 1 I > d K H > - u B M | ] 1. .!  .K t @ = * o h 5 - * * - - f ;.X.~ ;.O.O.n ! 5 @ 4 h v 0 0 H ; > r > > > > = * ",
"$ ; h S h @ = 0 o D o.0 ; y N d c k t C ] 1.] : K N > * t y ; d a : * - 5 - y V - V ,.X.c - c d 6 v > 1 ; L f % = * = > s h r o ",
"c @ y Q ~ o o a - > ( d * > H > B t p B O.;.] X c i - o 5 v y g v 6 y 5 + - i y X v ] =.z 8 z z 4 D @ @ h L ; * a o o h N t o r ",
";.K V ! +.P N y c + > L a f h y y t M C 1.[ | t * * * * d ! z 6 y g W v + o - + 4 ^ } :.c z 7 8 ; w f @ Q 6 @ 6 y d K ..C y y N ",
"=.;.^ y ! ;.;.c 4 $ - K 6 * ; d t t B | ;.| O.] - - i c ! O.c 6 6 C O./ g - @ - j } O.} C u 5 - x ; f ; K 6 - - t [ 2.| C | 2.1.",
"n u 5 @ i V #.O.V d @ $ K d r * p C N 1. .;.O.O.} C ! ] =. .M c i ~ ~ ~ } N j }  .O. ./ ;.K c 4 ; + D x + + - v O.,.] : o t H | ",
"6 + > 8 6 @ V [  .} K z 8 4 3 w e e 8 8 8 T W  .#.} %. .#.} y i z i ]  .{ >.] ^ } W ~ 6 n 6 D s w 4 4 4 4 z ^ =.=.z $ - > 1 o r ",
"; 6 L n 6 y ! O./ n 6 $ $ + + % % % $ $ + + z #. . .] C ] C : i i 5 ^ { V { =.#.=.7 $ X ; . ; ; + + % 4 3 7 T / ^ w 4 4 s h = A ",
"3 6 D v 5 c K ;.X.v @ + + + + + + % 9 w 3 + 3 b ]  .c t ] P - y u : ] ] 3 z #./ z $ $ X 0 ; w % O X + % + $ z =.,.^ 8 5 H A = r ",
"z + $ - - g : V 4.D - * % % % % % 4 G Q _ w 8 3 g | t * [  .t p 5 u >.] @ 5  .c $ 3 v f L D f = & # + % @ + f :.n w 7 + p t * p ",
"#.8 3 3 u W - j ~ 6 @ = % & & & # % 0 x o.X.~ i - | g - ] O.g y t c O.] - c =.- 8 d W Q L = @ = & & O # @ % e ..$ 8 c - : * t %.",
">.#.! j b ! 6 6 h = o o O & q & ; + X + v X.X.K * [ K p N N a : : g N g 6 ! ] - K W L f ; X + = % < # # = o @ f 4 d C i p l Y *.",
"^ / W i z d 5 - v > @ = O 2 s # ; @ + @ ; v K ~ y v g d y y g y 5 g y 6 y d v 4 L L v @ X ; < @ # q ; + % @ o 0 - * y j k $.*.' ",
"-.=.W v ~ y x V ~ d 4 = + 0 e . X ; 0 D 4 0 d L P 6 * d a y N t t K y t : @ 6 H K d @ ; 1 1 % X X 4 ; X = < s I 0 6 N C t ` ' $.",
"..I P @ - f $ z h ..v X X v ! K I I f o @ 6 d * I * I g o : +.y h V : * y ... ~ ; + 6 * @ ; L n d ! 8 + @ v H ) d > H * p %. .{ ",
"9.I * X f K ; $ . P W 5 * - V 2.o.y * * 1 X @ a 1 I d o y > N I I N y * ; y h y ; ; = o 1 * ; n #.b $ + 6 I f o = ; d o * t [  .",
"..J = 0 G d w d 6 ~ V V B u B %.g o o o ; + ; 0 * f h * o * y g i y * * o h h * 1 0 X o - @ + d >.b j j c P K @ d a d d 6 * ! ,.",
"6 > 6 d 6 X 4 _ ;.c 5 z | 1.%.1.C g g ; 4 ; ; o 0 @ ) K o y : * o : : : g O.= y ; @ * d @ d h 8 #.^ *.R c i ~ [ N = > d d * d N ",
"t o * @ $ $ $ _ 2.: y t p 1.1.%.| N N N Q 6 ; * 9 6 v L ~ K > * * y [ N o.N = a @ o > Q d n K W #.%.{ k j 5 N 2.N X * + - + o > ",
"} u j 7 8 W n =.O.: N p : `  .| C t > h W 0 4 ; 0 D + x O.h c o - N C O.N * h > + @ - D D 4 3 _ =.=.V : y u c 1.} : g - : y 6 P ",
"*.$.>.{ ^ ,.=.^ y 8 t y p ] 1.1.] M i 5 g d 4 X 9 ; 0 w i y [ - t P * K ; g g > $ 0 w 8 z - - K +.| M y : u c R ;.! *.P ! ! =.;.",
"m { &.%.#.#.! 3 $ n * * p p |  .1.P c 6 H G G w $ + ,.6 * v } [ | O.* o K +.* * 0 d K y 6 f ;.~ 2.I g g @ u u : B ] >.} =.] =.V "
};
