/* XPM */
static char *_b1bc1dc77d946d7e58832e24a05234aIkr02iUNan6bMrFB[] = {
/* columns rows colors chars-per-pixel */
"30 28 9 1 ",
"  c None",
". c #000400",
"X c #001E03",
"o c #002203",
"O c #002303",
"+ c #00C313",
"@ c #00E016",
"# c #00E017",
"$ c #00E217",
/* pixels */
"                              ",
"                              ",
"                              ",
"             .XX.             ",
"             X++X             ",
"             o##o             ",
"             o##o             ",
"             o##o             ",
"             o##o             ",
"             X++X             ",
"             .XX.             ",
"                              ",
"    .XoOoOX.      .XOOOOX.    ",
"    X+####+X      X+###$+X    ",
"    X+####+X      X+$###+X    ",
"    .oOOOOX.      .oOOoOX.    ",
"                              ",
"             .XX.             ",
"             X++X             ",
"             o##o             ",
"             o##o             ",
"             o##o             ",
"             o##o             ",
"             X++X             ",
"             .XX.             ",
"                              ",
"                              ",
"                              "
};
