/* XPM */
static char *_62c5af611b34100d04b4e3703c0e0caCoiIBLhm6SFSQND8[] = {
/* columns rows colors chars-per-pixel */
"64 64 256 2 ",
"   c black",
".  c #010101",
"X  c #020202",
"o  c gray1",
"O  c #040404",
"+  c gray2",
"@  c #060606",
"#  c #070707",
"$  c gray3",
"%  c #090909",
"&  c gray4",
"*  c #0B0B0B",
"=  c #0C0C0C",
"-  c gray5",
";  c #0E0E0E",
":  c gray6",
">  c #101010",
",  c #111111",
"<  c gray7",
"1  c #131313",
"2  c gray8",
"3  c #151515",
"4  c #161616",
"5  c gray9",
"6  c #181818",
"7  c #191919",
"8  c gray10",
"9  c #1B1B1B",
"0  c gray11",
"q  c #1D1D1D",
"w  c #1E1E1E",
"e  c gray12",
"r  c #202020",
"t  c gray13",
"y  c #222222",
"u  c #232323",
"i  c gray14",
"p  c #252525",
"a  c gray15",
"s  c #272727",
"d  c #282828",
"f  c gray16",
"g  c #2A2A2A",
"h  c gray17",
"j  c #2C2C2C",
"k  c #2D2D2D",
"l  c gray18",
"z  c #2F2F2F",
"x  c gray19",
"c  c #313131",
"v  c #323232",
"b  c gray20",
"n  c #343434",
"m  c #353535",
"M  c gray21",
"N  c #373737",
"B  c gray22",
"V  c #393939",
"C  c #3A3A3A",
"Z  c gray23",
"A  c #3C3C3C",
"S  c gray24",
"D  c #3E3E3E",
"F  c #3F3F3F",
"G  c gray25",
"H  c #414141",
"J  c gray26",
"K  c #434343",
"L  c #444444",
"P  c gray27",
"I  c #464646",
"U  c gray28",
"Y  c #484848",
"T  c #494949",
"R  c gray29",
"E  c #4B4B4B",
"W  c #4C4C4C",
"Q  c gray30",
"!  c #4E4E4E",
"~  c gray31",
"^  c #505050",
"/  c #515151",
"(  c gray32",
")  c #535353",
"_  c gray33",
"`  c #555555",
"'  c #565656",
"]  c gray34",
"[  c #585858",
"{  c gray35",
"}  c #5A5A5A",
"|  c #5B5B5B",
" . c gray36",
".. c #5D5D5D",
"X. c gray37",
"o. c #5F5F5F",
"O. c #606060",
"+. c gray38",
"@. c #626262",
"#. c gray39",
"$. c #646464",
"%. c #656565",
"&. c gray40",
"*. c #676767",
"=. c #686868",
"-. c DimGray",
";. c #6A6A6A",
":. c gray42",
">. c #6C6C6C",
",. c #6D6D6D",
"<. c gray43",
"1. c #6F6F6F",
"2. c gray44",
"3. c #717171",
"4. c #727272",
"5. c gray45",
"6. c #747474",
"7. c gray46",
"8. c #767676",
"9. c #777777",
"0. c gray47",
"q. c #797979",
"w. c gray48",
"e. c #7B7B7B",
"r. c #7C7C7C",
"t. c gray49",
"y. c #7E7E7E",
"u. c gray50",
"i. c #808080",
"p. c #818181",
"a. c gray51",
"s. c #838383",
"d. c #848484",
"f. c gray52",
"g. c #868686",
"h. c gray53",
"j. c #888888",
"k. c #898989",
"l. c gray54",
"z. c #8B8B8B",
"x. c gray55",
"c. c #8D8D8D",
"v. c #8E8E8E",
"b. c gray56",
"n. c #909090",
"m. c gray57",
"M. c #929292",
"N. c #939393",
"B. c gray58",
"V. c #959595",
"C. c gray59",
"Z. c #979797",
"A. c #989898",
"S. c gray60",
"D. c #9A9A9A",
"F. c #9B9B9B",
"G. c gray61",
"H. c #9D9D9D",
"J. c gray62",
"K. c #9F9F9F",
"L. c #A0A0A0",
"P. c gray63",
"I. c #A2A2A2",
"U. c gray64",
"Y. c #A4A4A4",
"T. c #A5A5A5",
"R. c gray65",
"E. c #A7A7A7",
"W. c gray66",
"Q. c #A9A9A9",
"!. c #AAAAAA",
"~. c gray67",
"^. c #ACACAC",
"/. c gray68",
"(. c #AEAEAE",
"). c #AFAFAF",
"_. c gray69",
"`. c #B1B1B1",
"'. c #B2B2B2",
"]. c gray70",
"[. c #B4B4B4",
"{. c gray71",
"}. c #B6B6B6",
"|. c #B7B7B7",
" X c gray72",
".X c #B9B9B9",
"XX c gray73",
"oX c #BBBBBB",
"OX c #BCBCBC",
"+X c gray74",
"@X c gray",
"#X c gray75",
"$X c #C0C0C0",
"%X c #C1C1C1",
"&X c gray76",
"*X c #C3C3C3",
"=X c gray77",
"-X c #C5C5C5",
";X c #C6C6C6",
":X c gray78",
">X c #C8C8C8",
",X c gray79",
"<X c #CACACA",
"1X c #CBCBCB",
"2X c gray80",
"3X c #CDCDCD",
"4X c #CECECE",
"5X c gray81",
"6X c #D0D0D0",
"7X c gray82",
"8X c #D2D2D2",
"9X c LightGray",
"0X c gray83",
"qX c #D5D5D5",
"wX c gray84",
"eX c #D7D7D7",
"rX c #D8D8D8",
"tX c gray85",
"yX c #DADADA",
"uX c gray86",
"iX c gainsboro",
"pX c #DDDDDD",
"aX c gray87",
"sX c #DFDFDF",
"dX c gray88",
"fX c #E1E1E1",
"gX c #E2E2E2",
"hX c gray89",
"jX c #E4E4E4",
"kX c gray90",
"lX c #E6E6E6",
"zX c #E7E7E7",
"xX c gray91",
"cX c #E9E9E9",
"vX c #EAEAEA",
"bX c gray92",
"nX c #ECECEC",
"mX c gray93",
"MX c #EEEEEE",
"NX c #EFEFEF",
"BX c gray94",
"VX c #F1F1F1",
"CX c gray95",
"ZX c #F3F3F3",
"AX c #F4F4F4",
"SX c gray96",
"DX c #F6F6F6",
"FX c gray97",
"GX c #F8F8F8",
"HX c #F9F9F9",
"JX c gray98",
"KX c #FBFBFB",
"LX c gray99",
"PX c #FDFDFD",
"IX c #FEFEFE",
"UX c white",
/* pixels */
"k k k k k k k k j j k k k k j j p h z k j k l k k j j k l l k h a h l k j l l j l k j k l l j g s j l k k z z k k k k k k k k k ",
"j j j j j j j j g h h j j h h g u f k j g h j h h g g h j j h f i f j h h j j g j h g h j j g f p g k h h k k h j j j j j j j j ",
"k k k k k k k k h j j k k j j h i g l k h j k j j j h j k k j g p g k j j k k h k j j j k k h g s h l j j l l j k k k k k k k k ",
"h h h h h h h h f g g h h g g f y d j h f h h g g g f g h h g f u d h g g j h f h g g g h h f d p f j g g j j g h h h h h h h h ",
"b b b b b b b b v v b b b b v v h c m b v b n b b v v b n n b c j c n b v n n v n b v b n n v x k v n b b m m b b b b b b b b b ",
"t t t t t t t t r r t t t t r r 7 e u t r t t r t r r t y y r e 8 e y t r y y e t t r t y t r w 9 r y t r y u t t t t t t t t t ",
"z z z z z z z z l l z z z z l l s k c z l z x z z l l z x x z k d k x z l x x l x z l z x x l j f l x z z c c z z z z z z z z z ",
"h h h h h h h h g g h h h h g g u f k h g h j h h g g h j j h f i f j h g j j g j h g h j j g d p g j h h k k h h h h h h h h h ",
"k k k k k k k k k j j j k k h g u k l g l k g l k j j j k k h g i g l k h k k j j j j k l k h f p g k j j l k h k k k k k k k k ",
"z z z z z z z z z l k l z z k j i z z j z z j z z l k l z z k j a j x z k l z l l l l z x z k h s j z l l z z k z z z z z z z z ",
"h h h h h h h h h g g h h h g d t h j f j h f j h g g h h h g d u f k h g h h g h g g h j j f s u d j g g j j f h h h h h h h h ",
"f f f f f f f f f f d f g f d a e g g s g f s g f f d f g f d a t s h f d f f d f d d f g g s a t s g f d g g s f f f f f f f f ",
"j j j j j j j j k j h j k k h f y k k g k k g k k j h j k k h f i g l j h j k j j j j k k k h f p g k j h k k h j j j j j j j j ",
"k k k k k k k k k j j j k k h g u k l g l k g k k j j j k k h g i g l k h j k j j j j k l k h f p g k j j k k h k k k k k k k k ",
"k k k k k k k k k j h j k k h g y k k g k k g k k j h j k k h g i g l k h j k j j j j k l k h f p g k j j k k h k k k k k k k k ",
"c c c c c c c c c x z x c c z l a c c l c c l c c x z x c c z l d l v c z x c x x x x c v c z k f l c x x c c z c c c c c c c c ",
"p p p p p p p p p p i p a p i y q u s p i p p i p p i p a p i y q u a p u p a p p p i p a p i y w u p i i a a i p p p p p p p p ",
"l l l l l l l l l l k l z l k h a j x l k l z k l l k l z l k h a j z l j l z l l l k l z l k h s j l k k z z k l l l l l l l l ",
"f f f f f f f f f f d f g f d a t s h f d f f d f f d f g f d a t s g d s f g f f f d f g f d a y s f d d g g d f f f f f f f f ",
"z z z z z z z z z l l l z z l j a k x z k z z l z l l l z z l j s k x l k l x z z l l l z z l j d k z l k z x l z z z z z z z z ",
"x x x x x x x x x z z z x x z k s k c x l x x z x z z z x x z k d l c z l z x x x z z z x x z k f l x z l x c z x x x x x x x x ",
"s s s s s s s s s a a a s s p i w i d s p a s a s a a a s s p i e p d a i a s a s a a a s s p i r i s p p s s a s s s s s s s s ",
"h h h h h h h h j h g h j j g d u f k h g h j h j h g h j j g d i f k h f h j h j h g h j j g d i f j g g j j g h h h h h h h h ",
"j j j j j j j j k j h j k k h f i g l j h j k j k j h j k k h f p g l j g j k j k j h j k k h f p g k h h k k h j j j j j j j j ",
"k k k k k k k k k j j j k k h g i g l k h k k j k j j j k k h g i g l k h k k j k j j j k k h g i g l k h k k j k k k k k k k k ",
"z z z z z z z z z l k l z z k j a j x z k l z l z l k l z z k j a j x z k l z l z l k l z z k j a j x z k l z l z z z z z z z z ",
"h h h h h h h h h g g h h h g d u f k h g h h g h g g h h h g d u f k h g h h g h g g h h h g d u f k h g h h g h h h h h h h h ",
"f f f f f f f f f f d f g f d a t s h f d f f d f f d f g f d a t s h f d f f d f f d f g f d a t s h f d f f d f f f f f f f f ",
"j j j j j j j j k j h j k k h f i g l j h j k j k j h j k k h f i g l j h j k j k j h j k k h f i g l j h j k j j j j j j j j j ",
"k k k k k k k k k j j j k k h g i g l k h j k j k j j j k k h g i g l k h j k j k j j j k k h g i g l k h j k j k k k k k k k k ",
"k k k k k k k k k j h j k k h g i g l k h j k j k j h j k k h g i g l k h j k j k j h j k k h g i g l k h j k j k k k k k k k k ",
"c c c c c c c c c x z x c c z l d l v c z x c x c x z x c c z l d l v c z x c x c x z x c c z l d l v c z x c x c c c c c c c c ",
"s s s s s s s s s a p a s s p i w i d s p a s a s a p a s s p i w i d s p a s a s a p a s s p i r p s a a d d a s s s s s s s s ",
"h h h h h h h h h g g g h h g d y f j h f h h g h g g g h h g d y f j h f h h g h g g g h h g d p f j g g j j h h h h h h h h h ",
"j j j j j j j j k j h j k k h f i g l j h j k j k j h j k k h f i g l j h j k j k j h j k k h f a h k j j l l j j j j j j j j j ",
"l l l l l l l l l k j k l l j h p h z l j k l k l k j k l l j h p h z l j k l k l k j k l l j h s j z k k z z k l l l l l l l l ",
"z z z z z z z z z l k l z z k j a j x z k l z l z l k l z z k j a j x z k l z l z l k l z z k j d k z l l x x l z z z z z z z z ",
"g g g g g g g g g f f f g g f s t d h g d g g f g f f f g g f s t d h g d g g f g f f f g g f s i d h f f h h g g g g g g g g g ",
"d d d d d d d d d d s d f d s p r a g d s d d s d d s d f d s p r a g d s d d s d d s d f d s p y s f d s f g d d d d d d d d d ",
"l l l l l l l l l k k k l l j h p h z l j k l k l k k k l l j h p h z l j k l k l k k k l l j h d j z k k z z k l l l l l l l l ",
"j j j j j j j j j h h h j j h f u g k j g j j h k j j j k k h g u g k j g j j h k j j j k k h g u g k j g j j h j j j j j j j j ",
"z z z z z z z z z l l l z z k j a j x z k l z l z l k l z z k j a j x z k l z l z l k l z z k j a j x z k l z l z z z z z z z z ",
"j j j j j j j j j j h j k j h f i g l j h j j h h g g h h h g d i g l j h j j h h g g h h h g d i g l j h j j h j j j j j j j j ",
"g g g g g g g g g f f f g g d s t s h g d f g f f f d f g f d a t s h g d f g f f f d f g f d a t s h g d f g f g g g g g g g g ",
"j j j j j j j j j h h h j j g f u f k j g j j h k j h j k k h f u f k j g j j h k j h j k k h f u f k j g j j h j j j j j j j j ",
"j j j j j j j j j h h h j j g f u f k j g h j h k j j j k k h g u f k j g h j h k j j j k k h g u f k j g h j h j j j j j j j j ",
"j j j j j j j j k j h j k k h f i g l j h j k h k j h j k k h g i g l j h j k h k j h j k k h g i g l j h j k h j j j j j j j j ",
"c c c c c c c c v c x c v v x l f z b c x c v c c x z x c c z l f z b c x c v c c x z x c c z l f z b c x c v c c c c c c c c c ",
"a a a a a a a a a p p p a a i u w i d s p a s a a p p p a a i u r i s p p s s p a p p p a a i u r i s p p s s p a a a a a a a a ",
"h h h h h h h h j h h h j j g f u f k j g h j h j h h h j j g f p f j g g j j h j h h h j j g f p f j g g j j h h h h h h h h h ",
"j j j j j j j j k k j k l k j g i g l j h j k h k k j k l k j g p g j h h k k h k k j k l k j g p g j h h k k h j j j j j j j j ",
"h h h h h h h h k j j j k k h g i g l j h j j h k j j j k k h g p g j h h k k h k j j j k k h g p g j h h k k h h h h h h h h h ",
"l l l l l l l l l k k k l l j h a j x l k l z k l k k k l l j h s j l k k z z k l k k k l l j h s j l k k z z k l l l l l l l l ",
"h h h h h h h h h g g g h h f d u f k j g j j h h g g g h h f d p f j h g j k h h g g g h h f d p f j h g j k h h h h h h h h h ",
"d d d d d d d d f d d d f f d a t s h f d f g d f d d d f f d a y s f d d g g d f d d d f f d a y s f d d g g d d d d d d d d d ",
"h h h h h h h h k j j j k k j g u g k j g j j h k j j j k k j g p g j h g j k h k j j j k k j g p g j h g j k h h h h h h h h h ",
"k k k k k k k k h h h h h g g f u f k h g h j g h h g h j h g d u f k h g h j g h h g h j h g d i f h g g j j g k k k k k k k k ",
"g g g g g g g g j k k k k j h h i h l k h k k j k j j j k k j g i h l k h k k j k j j j k k j g a h k j h k l j g g g g g g g g ",
"m m m m m m m m c c c c c x x z f z b c x c v x c c x c v c x l f z b c x c v x c c x c v c x l g z c x x v v x m m m m m m m m ",
"t t t t t t t t y y u u u y t t 8 r i u t y u y u y y y u u t r 8 r i u t y u y u y y y u u t r 0 r u y t u i y t t t t t t t t ",
"l l l l l l l l z z x x x z l l s k c x l z x z x z z z x x l k s k c x l z x z x z z z x x l k f k x z l x c z l l l l l l l l ",
"k k k k k k k k f f f f f f d s t s h f d f g f g f d f g g d a t s h f d f g f g f d f g g d a y s g d d g g d k k k k k k k k ",
"j j j j j j j j z z z z z l l k s k c z l z x l z z l z x z l j s k c z l z x l z z l z x z l j d k z l l x x l j j j j j j j j ",
"k k k k k k k k h h h h h g g f u f k h g h j g h h g h j h g d u f k h g h j g h h g h j h g d i f h g g j j g k k k k k k k k "
};
